<svg width="50" height="50" viewBox="0 0 50 50" fill="none" xmlns="http://www.w3.org/2000/svg">
<path d="M21.8749 32.2917C21.8749 33.0625 21.6666 33.75 21.2916 34.375C20.5833 33.1458 19.2499 32.2917 17.7083 32.2917C16.1666 32.2917 14.8333 33.1458 14.1249 34.375C13.7708 33.75 13.5416 33.0625 13.5416 32.2917C13.5416 30 15.4166 28.125 17.7083 28.125C19.9999 28.125 21.8749 30 21.8749 32.2917ZM47.9166 31.25V37.5C47.9166 38.6458 46.9791 39.5833 45.8333 39.5833H43.7499V41.6667C43.7499 43.9792 41.8958 45.8333 39.5833 45.8333H10.4166C9.31152 45.8333 8.25171 45.3943 7.47031 44.6129C6.68891 43.8315 6.24992 42.7717 6.24992 41.6667V39.5833H4.16659C3.02075 39.5833 2.08325 38.6458 2.08325 37.5V31.25C2.08325 30.1042 3.02075 29.1667 4.16659 29.1667H6.24992C6.24992 21.1042 12.7708 14.5833 20.8333 14.5833H22.9166V11.9375C21.6666 11.2292 20.8333 9.87499 20.8333 8.33332C20.8333 6.04166 22.7083 4.16666 24.9999 4.16666C27.2916 4.16666 29.1666 6.04166 29.1666 8.33332C29.1666 9.87499 28.3333 11.2292 27.0833 11.9375V14.5833H29.1666C37.2291 14.5833 43.7499 21.1042 43.7499 29.1667H45.8333C46.9791 29.1667 47.9166 30.1042 47.9166 31.25ZM43.7499 33.3333H39.5833V29.1667C39.5833 23.4167 34.9166 18.75 29.1666 18.75H20.8333C15.0833 18.75 10.4166 23.4167 10.4166 29.1667V33.3333H6.24992V35.4167H10.4166V41.6667H39.5833V35.4167H43.7499V33.3333ZM32.2916 28.125C29.9999 28.125 28.1249 30 28.1249 32.2917C28.1249 33.0625 28.3541 33.75 28.7083 34.375C29.4166 33.1458 30.7499 32.2917 32.2916 32.2917C33.8333 32.2917 35.1666 33.1458 35.8749 34.375C36.2499 33.75 36.4583 33.0625 36.4583 32.2917C36.4583 31.1866 36.0193 30.1268 35.2379 29.3454C34.4565 28.564 33.3967 28.125 32.2916 28.125Z" fill="#2E3C23"/>
</svg>
