<svg width="742" height="152" viewBox="0 0 742 152" fill="none" xmlns="http://www.w3.org/2000/svg">
<path d="M16.2793 22.292H22.0873V28.76H16.2793V22.292ZM5.10325 27.572H33.2633V41.476H5.10325V27.572ZM27.5433 32.192H10.8233V36.856H27.5433V32.192ZM0.79125 19.256H37.6633V23.876H0.79125V19.256ZM16.2353 1.568H21.2512V2.844C21.2512 4.28133 21.0019 5.66 20.5033 6.98C20.0339 8.27067 19.3446 9.488 18.4353 10.632C17.5259 11.7467 16.3966 12.7587 15.0473 13.668C13.7273 14.548 12.2019 15.296 10.4713 15.912C8.74058 16.528 6.81925 16.968 4.70725 17.232L2.59525 12.744C4.44325 12.5093 6.08592 12.1573 7.52325 11.688C8.98992 11.2187 10.2659 10.6613 11.3513 10.016C12.4366 9.34133 13.3313 8.608 14.0353 7.816C14.7686 7.024 15.3113 6.20266 15.6633 5.352C16.0446 4.50133 16.2353 3.66533 16.2353 2.844V1.568ZM17.2033 1.568H22.2193V2.844C22.2193 3.66533 22.3953 4.50133 22.7473 5.352C23.1286 6.20266 23.6713 7.024 24.3753 7.816C25.1086 8.608 26.0179 9.34133 27.1033 10.016C28.1886 10.6613 29.4646 11.2187 30.9313 11.688C32.3979 12.1573 34.0406 12.5093 35.8593 12.744L33.7473 17.232C31.6353 16.968 29.7139 16.528 27.9833 15.912C26.2819 15.296 24.7566 14.548 23.4073 13.668C22.0579 12.7587 20.9286 11.7467 20.0193 10.632C19.1099 9.488 18.4059 8.256 17.9073 6.936C17.4379 5.616 17.2033 4.252 17.2033 2.844V1.568ZM41.2678 21.94H78.1398V26.56H41.2678V21.94ZM45.7558 36.504H74.0038V41.212H45.7558V36.504ZM45.7558 29.288H51.6078V38H45.7558V29.288ZM59.7038 2.36C62.6665 2.36 65.2478 2.69733 67.4478 3.372C69.6771 4.04666 71.4078 5.01466 72.6398 6.276C73.8718 7.53733 74.4878 9.01867 74.4878 10.72C74.4878 12.4507 73.8718 13.9467 72.6398 15.208C71.4078 16.4693 69.6771 17.4373 67.4478 18.112C65.2478 18.7867 62.6665 19.124 59.7038 19.124C56.7705 19.124 54.1891 18.7867 51.9598 18.112C49.7598 17.4373 48.0438 16.4693 46.8118 15.208C45.5798 13.9467 44.9638 12.4507 44.9638 10.72C44.9638 9.01867 45.5798 7.53733 46.8118 6.276C48.0438 5.01466 49.7598 4.04666 51.9598 3.372C54.1891 2.69733 56.7705 2.36 59.7038 2.36ZM59.7038 6.98C57.9145 6.98 56.3598 7.12666 55.0398 7.42C53.7198 7.71333 52.7225 8.13866 52.0478 8.696C51.3731 9.224 51.0358 9.89867 51.0358 10.72C51.0358 11.5413 51.3731 12.2307 52.0478 12.788C52.7225 13.3453 53.7198 13.7707 55.0398 14.064C56.3598 14.3573 57.9145 14.504 59.7038 14.504C61.5518 14.504 63.1211 14.3573 64.4118 14.064C65.7025 13.7707 66.6851 13.3453 67.3598 12.788C68.0638 12.2307 68.4158 11.5413 68.4158 10.72C68.4158 9.89867 68.0638 9.224 67.3598 8.696C66.6851 8.13866 65.7025 7.71333 64.4118 7.42C63.1211 7.12666 61.5518 6.98 59.7038 6.98ZM103.754 2.756C105.807 2.756 107.641 3.13733 109.254 3.9C110.867 4.63333 112.129 5.66 113.038 6.98C113.977 8.27067 114.446 9.76667 114.446 11.468C114.446 13.1693 113.977 14.68 113.038 16C112.129 17.2907 110.867 18.3173 109.254 19.08C107.641 19.8133 105.807 20.18 103.754 20.18C101.701 20.18 99.8673 19.8133 98.254 19.08C96.6407 18.3173 95.3647 17.2907 94.426 16C93.5167 14.68 93.062 13.1693 93.062 11.468C93.062 9.76667 93.5167 8.27067 94.426 6.98C95.3647 5.66 96.6407 4.63333 98.254 3.9C99.8673 3.13733 101.701 2.756 103.754 2.756ZM103.754 7.508C102.786 7.508 101.921 7.66933 101.158 7.992C100.395 8.28533 99.794 8.72533 99.354 9.312C98.914 9.89867 98.694 10.6173 98.694 11.468C98.694 12.3187 98.914 13.0373 99.354 13.624C99.794 14.1813 100.395 14.6213 101.158 14.944C101.921 15.2373 102.786 15.384 103.754 15.384C104.751 15.384 105.631 15.2373 106.394 14.944C107.157 14.6213 107.758 14.1813 108.198 13.624C108.638 13.0373 108.858 12.3187 108.858 11.468C108.858 10.6173 108.638 9.89867 108.198 9.312C107.758 8.72533 107.157 8.28533 106.394 7.992C105.631 7.66933 104.751 7.508 103.754 7.508ZM100.982 24.272H106.878V40.64H100.982V24.272ZM118.802 1.128H124.654V41.872H118.802V1.128ZM91.346 27.352L90.686 22.6C93.0327 22.6 95.658 22.5853 98.562 22.556C101.495 22.4973 104.502 22.3653 107.582 22.16C110.662 21.9547 113.639 21.632 116.514 21.192L116.866 25.46C113.933 26.0467 110.955 26.472 107.934 26.736C104.913 27 101.979 27.1613 99.134 27.22C96.2887 27.2787 93.6927 27.3227 91.346 27.352ZM159.235 1.172H165.131V25.768H159.235V1.172ZM154.175 13.052H161.611V17.804H154.175V13.052ZM137.939 27.484H165.131V41.476H137.939V27.484ZM159.367 32.06H143.703V36.856H159.367V32.06ZM131.119 4.692H154.923V9.312H131.119V4.692ZM143.043 10.632C144.949 10.632 146.636 10.94 148.103 11.556C149.569 12.172 150.713 13.0373 151.535 14.152C152.385 15.2373 152.811 16.5133 152.811 17.98C152.811 19.4173 152.385 20.6933 151.535 21.808C150.713 22.8933 149.569 23.744 148.103 24.36C146.636 24.976 144.949 25.284 143.043 25.284C141.165 25.284 139.479 24.976 137.983 24.36C136.516 23.744 135.357 22.8933 134.507 21.808C133.685 20.6933 133.275 19.4173 133.275 17.98C133.275 16.5133 133.685 15.2373 134.507 14.152C135.357 13.0373 136.516 12.172 137.983 11.556C139.479 10.94 141.165 10.632 143.043 10.632ZM143.087 14.944C142.236 14.944 141.488 15.0613 140.843 15.296C140.227 15.5307 139.743 15.868 139.391 16.308C139.039 16.748 138.863 17.2907 138.863 17.936C138.863 18.6107 139.039 19.1827 139.391 19.652C139.743 20.092 140.241 20.4293 140.887 20.664C141.532 20.8987 142.251 21.016 143.043 21.016C143.893 21.016 144.627 20.8987 145.243 20.664C145.859 20.4293 146.343 20.092 146.695 19.652C147.047 19.1827 147.223 18.6107 147.223 17.936C147.223 17.2907 147.047 16.748 146.695 16.308C146.343 15.868 145.859 15.5307 145.243 15.296C144.627 15.0613 143.908 14.944 143.087 14.944ZM140.139 0.819999H145.947V7.948H140.139V0.819999ZM198.039 1.128H203.891V41.872H198.039V1.128ZM202.087 17.056H209.171V21.896H202.087V17.056ZM178.019 5.308H183.475C183.475 8.124 183.372 10.7933 183.167 13.316C182.991 15.8387 182.624 18.244 182.067 20.532C181.51 22.82 180.674 25.0347 179.559 27.176C178.474 29.288 177.036 31.356 175.247 33.38L170.671 30.036C172.226 28.3053 173.487 26.56 174.455 24.8C175.423 23.04 176.171 21.2067 176.699 19.3C177.227 17.3933 177.579 15.3547 177.755 13.184C177.931 10.984 178.019 8.57866 178.019 5.968V5.308ZM172.475 5.308H180.307V10.016H172.475V5.308ZM189.239 5.308H194.739C194.739 8.24133 194.636 11.0867 194.431 13.844C194.255 16.572 193.888 19.212 193.331 21.764C192.774 24.2867 191.967 26.736 190.911 29.112C189.855 31.4587 188.432 33.732 186.643 35.932L182.067 32.72C183.622 30.7547 184.868 28.7747 185.807 26.78C186.746 24.7853 187.464 22.7173 187.963 20.576C188.462 18.4347 188.799 16.1613 188.975 13.756C189.151 11.3507 189.239 8.74 189.239 5.924V5.308ZM184.883 5.308H191.659V10.016H184.883V5.308ZM221.796 7.596H226.46V12.172C226.46 14.5187 226.21 16.8213 225.712 19.08C225.242 21.3387 224.524 23.4653 223.556 25.46C222.617 27.4253 221.429 29.1707 219.992 30.696C218.554 32.192 216.882 33.38 214.976 34.26L211.632 29.64C213.333 28.848 214.814 27.8213 216.076 26.56C217.366 25.2987 218.422 23.8907 219.244 22.336C220.094 20.752 220.725 19.0947 221.136 17.364C221.576 15.604 221.796 13.8733 221.796 12.172V7.596ZM223.072 7.596H227.692V12.172C227.692 13.7853 227.897 15.428 228.308 17.1C228.748 18.7427 229.378 20.312 230.2 21.808C231.021 23.2747 232.062 24.5947 233.324 25.768C234.585 26.9413 236.081 27.88 237.812 28.584L234.6 33.248C232.664 32.3973 230.977 31.2533 229.54 29.816C228.102 28.3787 226.9 26.7213 225.932 24.844C224.964 22.9667 224.245 20.9573 223.776 18.816C223.306 16.6453 223.072 14.4307 223.072 12.172V7.596ZM213.26 5.044H236.14V9.884H213.26V5.044ZM239.924 1.172H245.776V41.916H239.924V1.172ZM270.334 7.904H275.086V9.4C275.086 11.688 274.661 13.8587 273.81 15.912C272.989 17.936 271.727 19.696 270.026 21.192C268.325 22.688 266.169 23.788 263.558 24.492L260.874 19.916C263.103 19.3293 264.907 18.4933 266.286 17.408C267.694 16.3227 268.721 15.0907 269.366 13.712C270.011 12.304 270.334 10.8667 270.334 9.4V7.904ZM271.434 7.904H276.186V9.4C276.186 10.7493 276.509 12.084 277.154 13.404C277.829 14.6947 278.855 15.8533 280.234 16.88C281.613 17.9067 283.387 18.6987 285.558 19.256L282.962 23.788C280.351 23.1133 278.195 22.072 276.494 20.664C274.793 19.2267 273.517 17.54 272.666 15.604C271.845 13.668 271.434 11.6 271.434 9.4V7.904ZM262.326 5.044H284.238V9.62H262.326V5.044ZM270.334 0.995999H276.186V7.2H270.334V0.995999ZM287.406 1.172H293.258V24.36H287.406V1.172ZM291.674 10.28H298.67V15.076H291.674V10.28ZM277.022 28.056H281.994V29.024C281.994 30.5787 281.671 32.06 281.026 33.468C280.381 34.876 279.413 36.152 278.122 37.296C276.831 38.4107 275.247 39.3493 273.37 40.112C271.493 40.8747 269.322 41.432 266.858 41.784L264.746 37.34C266.858 37.076 268.691 36.6653 270.246 36.108C271.801 35.5507 273.077 34.8907 274.074 34.128C275.071 33.3653 275.805 32.544 276.274 31.664C276.773 30.7547 277.022 29.8747 277.022 29.024V28.056ZM278.342 28.056H283.27V29.024C283.27 29.8747 283.519 30.74 284.018 31.62C284.517 32.4707 285.265 33.292 286.262 34.084C287.289 34.8467 288.565 35.5213 290.09 36.108C291.615 36.6947 293.419 37.12 295.502 37.384L293.434 41.828C290.97 41.5053 288.799 40.948 286.922 40.156C285.045 39.364 283.461 38.396 282.17 37.252C280.909 36.108 279.955 34.832 279.31 33.424C278.665 32.016 278.342 30.5493 278.342 29.024V28.056ZM266.506 26.076H293.786V30.696H266.506V26.076ZM312.614 3.944C314.697 3.944 316.53 4.54533 318.114 5.748C319.728 6.92133 320.989 8.608 321.898 10.808C322.837 12.9787 323.306 15.5453 323.306 18.508C323.306 21.5 322.837 24.096 321.898 26.296C320.989 28.4667 319.728 30.1533 318.114 31.356C316.53 32.5293 314.697 33.116 312.614 33.116C310.532 33.116 308.684 32.5293 307.07 31.356C305.457 30.1533 304.181 28.4667 303.242 26.296C302.333 24.096 301.878 21.5 301.878 18.508C301.878 15.5453 302.333 12.9787 303.242 10.808C304.181 8.608 305.457 6.92133 307.07 5.748C308.684 4.54533 310.532 3.944 312.614 3.944ZM312.614 9.268C311.617 9.268 310.722 9.62 309.93 10.324C309.168 11.028 308.566 12.0693 308.126 13.448C307.716 14.7973 307.51 16.484 307.51 18.508C307.51 20.5027 307.716 22.204 308.126 23.612C308.566 24.9907 309.168 26.032 309.93 26.736C310.722 27.44 311.617 27.792 312.614 27.792C313.612 27.792 314.492 27.44 315.254 26.736C316.017 26.032 316.604 24.9907 317.014 23.612C317.454 22.204 317.674 20.5027 317.674 18.508C317.674 16.484 317.454 14.7973 317.014 13.448C316.604 12.0693 316.017 11.028 315.254 10.324C314.492 9.62 313.612 9.268 312.614 9.268ZM327.706 1.172H333.602V41.916H327.706V1.172ZM332.326 16.528H339.498V21.324H332.326V16.528ZM371.483 1.128H377.027V41.872H371.483V1.128ZM366.159 16.836H372.935V21.544H366.159V16.836ZM362.375 1.832H367.831V39.98H362.375V1.832ZM343.763 5.66H349.615V29.2H343.763V5.66ZM343.763 26.956H346.579C348.544 26.956 350.656 26.8973 352.915 26.78C355.203 26.6333 357.608 26.3107 360.131 25.812L360.659 30.828C358.019 31.2973 355.526 31.6053 353.179 31.752C350.832 31.8987 348.632 31.972 346.579 31.972H343.763V26.956ZM387.188 12.128H415.436V16.792H387.188V12.128ZM382.656 21.016H419.528V25.68H382.656V21.016ZM387.188 2.58H393.04V14.46H387.188V2.58ZM386.836 36.328H415.656V41.036H386.836V36.328ZM386.836 28.892H392.688V37.604H386.836V28.892ZM431.942 21.28H468.77V25.944H431.942V21.28ZM436.386 13.316H464.722V17.98H436.386V13.316ZM436.386 2.624H464.37V7.244H442.194V14.988H436.386V2.624ZM436.254 36.504H464.986V41.168H436.254V36.504ZM436.254 28.98H442.106V37.692H436.254V28.98ZM472.418 21.28H509.246V25.944H472.418V21.28ZM476.862 13.316H505.198V17.98H476.862V13.316ZM476.862 2.624H504.846V7.244H482.67V14.988H476.862V2.624ZM476.73 36.504H505.462V41.168H476.73V36.504ZM476.73 28.98H482.582V37.692H476.73V28.98ZM539.031 1.172H544.883V31.62H539.031V1.172ZM543.255 13.58H550.295V18.42H543.255V13.58ZM512.851 5.44H536.787V10.016H512.851V5.44ZM524.819 11.468C526.784 11.468 528.515 11.8053 530.011 12.48C531.536 13.1253 532.724 14.0493 533.575 15.252C534.426 16.4253 534.851 17.7747 534.851 19.3C534.851 20.8547 534.426 22.2333 533.575 23.436C532.724 24.6093 531.536 25.5333 530.011 26.208C528.515 26.8533 526.784 27.176 524.819 27.176C522.883 27.176 521.152 26.8533 519.627 26.208C518.102 25.5333 516.914 24.6093 516.063 23.436C515.212 22.2333 514.787 20.8547 514.787 19.3C514.787 17.7747 515.212 16.4253 516.063 15.252C516.914 14.0493 518.102 13.1253 519.627 12.48C521.152 11.8053 522.883 11.468 524.819 11.468ZM524.819 15.912C523.528 15.912 522.472 16.2053 521.651 16.792C520.83 17.3787 520.419 18.2293 520.419 19.344C520.419 20.4293 520.83 21.2653 521.651 21.852C522.472 22.4387 523.528 22.732 524.819 22.732C526.139 22.732 527.195 22.4387 527.987 21.852C528.808 21.2653 529.219 20.4293 529.219 19.344C529.219 18.2293 528.808 17.3787 527.987 16.792C527.195 16.2053 526.139 15.912 524.819 15.912ZM521.915 1.128H527.723V7.64H521.915V1.128ZM518.615 36.504H546.335V41.212H518.615V36.504ZM518.615 29.332H524.511V38.528H518.615V29.332ZM577.801 11.908H586.029V16.528H577.801V11.908ZM577.581 22.072H585.897V26.736H577.581V22.072ZM591.573 1.128H597.161V41.872H591.573V1.128ZM583.213 2.008H588.669V40.068H583.213V2.008ZM574.017 5.924H579.605C579.605 9.796 579.15 13.404 578.241 16.748C577.361 20.0627 575.836 23.1133 573.665 25.9C571.524 28.6867 568.561 31.1947 564.777 33.424L561.477 29.332C564.557 27.484 567.006 25.4747 568.825 23.304C570.673 21.104 571.993 18.684 572.785 16.044C573.606 13.3747 574.017 10.3973 574.017 7.112V5.924ZM563.809 5.924H575.953V10.632H563.809V5.924ZM632.842 6.452H639.838V11.248H632.842V6.452ZM632.842 15.296H639.838V20.048H632.842V15.296ZM628.75 1.172H634.602V25.196H628.75V1.172ZM607.41 26.868H634.602V41.916H628.75V31.488H607.41V26.868ZM613.878 3.372C615.99 3.372 617.882 3.812 619.554 4.692C621.226 5.54266 622.546 6.716 623.514 8.212C624.482 9.67867 624.966 11.38 624.966 13.316C624.966 15.2813 624.482 17.012 623.514 18.508C622.546 20.004 621.226 21.1773 619.554 22.028C617.882 22.8787 615.99 23.304 613.878 23.304C611.795 23.304 609.918 22.8787 608.246 22.028C606.574 21.1773 605.254 20.004 604.286 18.508C603.318 17.012 602.834 15.2813 602.834 13.316C602.834 11.38 603.318 9.67867 604.286 8.212C605.254 6.716 606.574 5.54266 608.246 4.692C609.918 3.812 611.795 3.372 613.878 3.372ZM613.878 8.3C612.88 8.3 611.971 8.50533 611.15 8.916C610.328 9.29733 609.683 9.86933 609.214 10.632C608.774 11.3653 608.554 12.26 608.554 13.316C608.554 14.4013 608.774 15.3253 609.214 16.088C609.683 16.8213 610.328 17.3933 611.15 17.804C611.971 18.1853 612.88 18.376 613.878 18.376C614.934 18.376 615.858 18.1853 616.65 17.804C617.442 17.3933 618.072 16.8213 618.542 16.088C619.011 15.3253 619.246 14.4013 619.246 13.316C619.246 12.26 619.011 11.3653 618.542 10.632C618.072 9.86933 617.442 9.29733 616.65 8.916C615.858 8.50533 614.934 8.3 613.878 8.3ZM679.752 1.084H685.604V41.96H679.752V1.084ZM653.792 4.34H659.6V14.284H668.048V4.34H673.856V32.456H653.792V4.34ZM659.6 18.816V27.792H668.048V18.816H659.6ZM712.836 13.888H723.572V18.596H712.836V13.888ZM701.748 4.252H706.456V10.192C706.456 12.744 706.236 15.2227 705.796 17.628C705.356 20.0333 704.682 22.2773 703.772 24.36C702.863 26.4427 701.704 28.276 700.296 29.86C698.918 31.444 697.275 32.72 695.368 33.688L691.716 29.024C693.447 28.2027 694.928 27.132 696.16 25.812C697.422 24.492 698.463 22.996 699.284 21.324C700.135 19.6227 700.751 17.8333 701.132 15.956C701.543 14.0493 701.748 12.128 701.748 10.192V4.252ZM702.936 4.252H707.6V10.192C707.6 12.0987 707.791 13.9907 708.172 15.868C708.554 17.716 709.126 19.4467 709.888 21.06C710.68 22.6733 711.692 24.1107 712.924 25.372C714.156 26.604 715.623 27.6013 717.324 28.364L713.804 33.028C711.898 32.0893 710.255 30.8573 708.876 29.332C707.498 27.7773 706.368 26.0027 705.488 24.008C704.638 22.0133 703.992 19.8427 703.552 17.496C703.142 15.1493 702.936 12.7147 702.936 10.192V4.252ZM720.624 1.084H726.476V41.96H720.624V1.084ZM741.523 33.625L741.398 35.375C741.294 36.875 741.044 38.3125 740.648 39.6875C740.263 41.0625 739.852 42.2813 739.414 43.3438C738.987 44.4063 738.648 45.2292 738.398 45.8125H733.086C733.253 45.2292 733.487 44.3854 733.789 43.2813C734.102 42.1875 734.383 40.9479 734.633 39.5625C734.893 38.1875 735.023 36.7917 735.023 35.375V33.625H741.523ZM275.81 98.6364H259.788C259.674 97.3106 259.371 96.108 258.879 95.0284C258.405 93.9489 257.742 93.0208 256.89 92.2443C256.057 91.4489 255.043 90.8428 253.85 90.4261C252.657 89.9905 251.303 89.7727 249.788 89.7727C247.136 89.7727 244.892 90.4167 243.055 91.7045C241.237 92.9924 239.854 94.839 238.907 97.2443C237.979 99.6496 237.515 102.538 237.515 105.909C237.515 109.47 237.988 112.453 238.935 114.858C239.901 117.244 241.293 119.044 243.112 120.256C244.93 121.449 247.117 122.045 249.674 122.045C251.132 122.045 252.439 121.866 253.594 121.506C254.75 121.127 255.754 120.587 256.606 119.886C257.458 119.186 258.149 118.343 258.68 117.358C259.229 116.354 259.598 115.227 259.788 113.977L275.81 114.091C275.621 116.553 274.93 119.062 273.737 121.619C272.543 124.157 270.848 126.506 268.651 128.665C266.473 130.805 263.774 132.528 260.555 133.835C257.335 135.142 253.594 135.795 249.333 135.795C243.992 135.795 239.201 134.65 234.958 132.358C230.735 130.066 227.392 126.695 224.93 122.244C222.487 117.794 221.265 112.348 221.265 105.909C221.265 99.4318 222.515 93.9773 225.015 89.5455C227.515 85.0947 230.886 81.733 235.129 79.4602C239.371 77.1686 244.106 76.0227 249.333 76.0227C253.007 76.0227 256.388 76.5246 259.475 77.5284C262.562 78.5322 265.271 80 267.6 81.9318C269.93 83.8447 271.805 86.2027 273.225 89.0057C274.646 91.8087 275.507 95.0189 275.81 98.6364ZM298.886 110.455V135H283.204V76.8182H298.317V99.6591H298.772C299.757 96.875 301.395 94.7064 303.687 93.1534C305.978 91.5814 308.734 90.7955 311.954 90.7955C315.041 90.7955 317.721 91.4962 319.994 92.8977C322.285 94.2992 324.056 96.2311 325.306 98.6932C326.575 101.155 327.2 103.977 327.181 107.159V135H311.499V110.455C311.518 108.295 310.978 106.6 309.88 105.369C308.8 104.138 307.257 103.523 305.249 103.523C303.98 103.523 302.863 103.807 301.897 104.375C300.95 104.924 300.211 105.72 299.681 106.761C299.17 107.784 298.905 109.015 298.886 110.455ZM355.832 135.795C351.173 135.795 347.157 134.905 343.786 133.125C340.434 131.326 337.849 128.75 336.031 125.398C334.231 122.027 333.332 117.992 333.332 113.295C333.332 108.788 334.241 104.848 336.059 101.477C337.877 98.1061 340.443 95.483 343.758 93.608C347.072 91.733 350.983 90.7955 355.491 90.7955C358.786 90.7955 361.769 91.3068 364.44 92.3295C367.11 93.3523 369.392 94.839 371.286 96.7898C373.18 98.7216 374.638 101.07 375.661 103.835C376.684 106.6 377.195 109.716 377.195 113.182V116.818H338.218V108.182H362.763C362.745 106.932 362.423 105.833 361.798 104.886C361.192 103.92 360.368 103.172 359.326 102.642C358.303 102.093 357.138 101.818 355.832 101.818C354.563 101.818 353.398 102.093 352.337 102.642C351.277 103.172 350.424 103.911 349.781 104.858C349.156 105.805 348.824 106.913 348.786 108.182V117.5C348.786 118.902 349.08 120.152 349.667 121.25C350.254 122.348 351.097 123.21 352.195 123.835C353.294 124.46 354.62 124.773 356.173 124.773C357.252 124.773 358.237 124.621 359.127 124.318C360.036 124.015 360.813 123.58 361.457 123.011C362.101 122.424 362.574 121.723 362.877 120.909H377.195C376.703 123.939 375.538 126.572 373.701 128.807C371.864 131.023 369.43 132.746 366.4 133.977C363.388 135.189 359.866 135.795 355.832 135.795ZM404.617 135.795C399.882 135.795 395.829 134.858 392.458 132.983C389.087 131.089 386.502 128.456 384.702 125.085C382.903 121.695 382.004 117.765 382.004 113.295C382.004 108.826 382.903 104.905 384.702 101.534C386.502 98.1439 389.087 95.5114 392.458 93.6364C395.829 91.7424 399.882 90.7955 404.617 90.7955C408.897 90.7955 412.6 91.572 415.725 93.125C418.869 94.6591 421.303 96.8371 423.026 99.6591C424.75 102.462 425.621 105.758 425.64 109.545H411.094C410.886 107.254 410.223 105.511 409.106 104.318C408.007 103.106 406.587 102.5 404.844 102.5C403.481 102.5 402.288 102.898 401.265 103.693C400.242 104.47 399.447 105.653 398.879 107.244C398.31 108.816 398.026 110.795 398.026 113.182C398.026 115.568 398.31 117.557 398.879 119.148C399.447 120.72 400.242 121.903 401.265 122.699C402.288 123.475 403.481 123.864 404.844 123.864C406 123.864 407.022 123.598 407.913 123.068C408.803 122.519 409.522 121.723 410.072 120.682C410.64 119.621 410.981 118.333 411.094 116.818H425.64C425.583 120.663 424.702 124.015 422.998 126.875C421.293 129.716 418.879 131.913 415.754 133.466C412.647 135.019 408.935 135.795 404.617 135.795ZM446.201 124.659L446.315 106.023H448.36L458.928 91.3636H476.542L458.815 114.205H454.383L446.201 124.659ZM432.11 135V76.8182H447.792V135H432.11ZM459.042 135L449.042 117.727L459.269 106.591L476.996 135H459.042ZM491.343 151.364C489.544 151.364 487.83 151.222 486.201 150.938C484.572 150.672 483.142 150.303 481.911 149.83L485.32 138.693C486.608 139.148 487.782 139.441 488.843 139.574C489.923 139.706 490.841 139.631 491.599 139.347C492.375 139.063 492.934 138.523 493.275 137.727L493.616 136.932L478.275 91.3636H494.638L501.684 121.591H502.138L509.298 91.3636H525.775L509.866 138.636C509.07 141.042 507.915 143.201 506.4 145.114C504.904 147.045 502.934 148.57 500.491 149.688C498.048 150.805 494.998 151.364 491.343 151.364Z" fill="url(#paint0_linear_6_139)"/>
<defs>
<linearGradient id="paint0_linear_6_139" x1="54" y1="-224.067" x2="527.5" y2="187" gradientUnits="userSpaceOnUse">
<stop offset="0.649038" stop-color="#2E3C23"/>
<stop offset="1" stop-color="#4B9560"/>
</linearGradient>
</defs>
</svg>
