<svg width="34" height="34" viewBox="0 0 34 34" fill="none" xmlns="http://www.w3.org/2000/svg">
<path d="M5.19734 15.2025C4.77241 14.7774 4.53369 14.201 4.53369 13.6C4.53369 12.9989 4.77241 12.4225 5.19734 11.9974L15.3973 1.79744C15.8224 1.37251 16.3988 1.13379 16.9999 1.13379C17.6009 1.13379 18.1773 1.37251 18.6024 1.79744L28.8024 11.9974C29.2153 12.4249 29.4438 12.9975 29.4386 13.5918C29.4334 14.1861 29.1951 14.7546 28.7748 15.1749C28.3545 15.5952 27.786 15.8335 27.1917 15.8387C26.5974 15.8439 26.0248 15.6154 25.5973 15.2025L19.2665 9.06664V30.6C19.2665 31.2011 19.0277 31.7777 18.6026 32.2027C18.1776 32.6278 17.601 32.8666 16.9999 32.8666C16.3987 32.8666 15.8222 32.6278 15.3971 32.2027C14.972 31.7777 14.7332 31.2011 14.7332 30.6L14.7332 9.06664L8.40241 15.2025C7.97734 15.6274 7.40091 15.8662 6.79987 15.8662C6.19884 15.8662 5.6224 15.6274 5.19734 15.2025Z" fill="black"/>
</svg>
