<svg width="1138" height="274" viewBox="0 0 1138 274" fill="none" xmlns="http://www.w3.org/2000/svg">
<g filter="url(#filter0_d_216_27)">
<rect x="776" y="4" width="358" height="266" rx="20" fill="white"/>
</g>
<path d="M811.211 78V76.3125C811.211 75.8333 811.305 75.3437 811.492 74.8437C811.68 74.3437 811.927 73.8724 812.234 73.4297C812.542 72.987 812.875 72.6172 813.234 72.3203L814.703 73.1875C814.411 73.6458 814.172 74.125 813.984 74.625C813.802 75.125 813.711 75.6823 813.711 76.2969V78H811.211ZM815.156 78V76.3125C815.156 75.8333 815.25 75.3437 815.438 74.8437C815.625 74.3437 815.872 73.8724 816.18 73.4297C816.487 72.987 816.82 72.6172 817.18 72.3203L818.648 73.1875C818.357 73.6458 818.117 74.125 817.93 74.625C817.747 75.125 817.656 75.6823 817.656 76.2969V78H815.156ZM833.229 70.586H836.155V90.958H833.229V70.586ZM835.495 78.528H839.081V80.948H835.495V78.528ZM820.073 73.578H831.953V75.91H820.073V73.578ZM826.057 77.076C827.04 77.076 827.92 77.2887 828.697 77.714C829.475 78.1247 830.083 78.6893 830.523 79.408C830.978 80.1267 831.205 80.9627 831.205 81.916C831.205 82.8693 830.978 83.7127 830.523 84.446C830.083 85.1647 829.475 85.7367 828.697 86.162C827.935 86.5727 827.055 86.778 826.057 86.778C825.075 86.778 824.187 86.5727 823.395 86.162C822.618 85.7367 822.002 85.1647 821.547 84.446C821.107 83.7127 820.887 82.8693 820.887 81.916C820.887 80.9627 821.107 80.1267 821.547 79.408C822.002 78.6893 822.618 78.1247 823.395 77.714C824.187 77.2887 825.075 77.076 826.057 77.076ZM826.057 79.452C825.588 79.452 825.177 79.5473 824.825 79.738C824.473 79.9287 824.195 80.2073 823.989 80.574C823.784 80.9407 823.681 81.388 823.681 81.916C823.681 82.4293 823.784 82.8767 823.989 83.258C824.195 83.6247 824.473 83.9107 824.825 84.116C825.177 84.3067 825.588 84.402 826.057 84.402C826.512 84.402 826.915 84.3067 827.267 84.116C827.619 83.9107 827.898 83.6247 828.103 83.258C828.309 82.8767 828.411 82.4293 828.411 81.916C828.411 81.388 828.309 80.9407 828.103 80.574C827.898 80.2073 827.619 79.9287 827.267 79.738C826.915 79.5473 826.512 79.452 826.057 79.452ZM824.561 70.916H827.509V74.48H824.561V70.916ZM842.534 71.224H856.746V77.296H845.526V80.376H842.556V75.096H853.776V73.534H842.534V71.224ZM842.556 78.968H857.23V81.278H842.556V78.968ZM840.422 82.774H858.858V85.106H840.422V82.774ZM848.144 83.632H851.048V90.98H848.144V83.632ZM868.8 78.066H872.144V80.42H868.8V78.066ZM875.356 70.564H878.15V90.936H875.356V70.564ZM871.22 70.894H873.948V90.034H871.22V70.894ZM865.236 71.994C866.13 71.994 866.908 72.2947 867.568 72.896C868.242 73.4827 868.756 74.3333 869.108 75.448C869.474 76.548 869.658 77.868 869.658 79.408C869.658 80.9333 869.474 82.2533 869.108 83.368C868.756 84.4827 868.242 85.3407 867.568 85.942C866.908 86.5287 866.123 86.822 865.214 86.822C864.334 86.822 863.556 86.5287 862.882 85.942C862.222 85.3407 861.708 84.4827 861.342 83.368C860.99 82.2533 860.814 80.9333 860.814 79.408C860.814 77.868 860.99 76.548 861.342 75.448C861.708 74.3333 862.222 73.4827 862.882 72.896C863.556 72.2947 864.341 71.994 865.236 71.994ZM865.236 74.766C864.869 74.766 864.554 74.9347 864.29 75.272C864.026 75.6093 863.82 76.1227 863.674 76.812C863.542 77.4867 863.476 78.352 863.476 79.408C863.476 80.4347 863.542 81.2927 863.674 81.982C863.82 82.6713 864.026 83.192 864.29 83.544C864.554 83.8813 864.869 84.05 865.236 84.05C865.602 84.05 865.918 83.8813 866.182 83.544C866.46 83.192 866.666 82.6713 866.798 81.982C866.93 81.2927 866.996 80.4347 866.996 79.408C866.996 78.352 866.93 77.4867 866.798 76.812C866.666 76.1227 866.46 75.6093 866.182 75.272C865.918 74.9347 865.602 74.766 865.236 74.766ZM893.346 73V89H889.963V76.2109H889.869L886.205 78.5078V75.5078L890.166 73H893.346ZM903.422 89.3516C902.078 89.3464 900.922 89.0156 899.953 88.3594C898.99 87.7031 898.247 86.7526 897.727 85.5078C897.211 84.263 896.956 82.7656 896.961 81.0156C896.961 79.2708 897.219 77.7839 897.734 76.5547C898.255 75.3255 898.997 74.3906 899.961 73.75C900.93 73.1042 902.083 72.7812 903.422 72.7812C904.76 72.7812 905.911 73.1042 906.875 73.75C907.844 74.3958 908.589 75.3333 909.109 76.5625C909.63 77.7865 909.888 79.2708 909.883 81.0156C909.883 82.7708 909.622 84.2708 909.102 85.5156C908.586 86.7604 907.846 87.7109 906.883 88.3672C905.919 89.0234 904.766 89.3516 903.422 89.3516ZM903.422 86.5469C904.339 86.5469 905.07 86.0859 905.617 85.1641C906.164 84.2422 906.435 82.8594 906.43 81.0156C906.43 79.8021 906.305 78.7917 906.055 77.9844C905.81 77.1771 905.461 76.5703 905.008 76.1641C904.56 75.7578 904.031 75.5547 903.422 75.5547C902.51 75.5547 901.781 76.0104 901.234 76.9219C900.688 77.8333 900.411 79.1979 900.406 81.0156C900.406 82.2448 900.529 83.2708 900.773 84.0937C901.023 84.9115 901.375 85.526 901.828 85.9375C902.281 86.3437 902.812 86.5469 903.422 86.5469ZM916.85 72.148H919.248V75.096C919.248 76.416 919.131 77.6847 918.896 78.902C918.661 80.1047 918.302 81.234 917.818 82.29C917.349 83.3313 916.74 84.2553 915.992 85.062C915.259 85.854 914.386 86.4847 913.374 86.954L911.636 84.534C912.531 84.138 913.301 83.6173 913.946 82.972C914.606 82.312 915.149 81.564 915.574 80.728C915.999 79.8773 916.315 78.9753 916.52 78.022C916.74 77.0687 916.85 76.0933 916.85 75.096V72.148ZM917.422 72.148H919.798V75.096C919.798 76.0493 919.901 76.9807 920.106 77.89C920.311 78.7993 920.619 79.6573 921.03 80.464C921.455 81.2707 921.983 81.9893 922.614 82.62C923.259 83.236 924.015 83.7273 924.88 84.094L923.186 86.47C922.203 86.0153 921.345 85.4067 920.612 84.644C919.893 83.8813 919.299 83.0013 918.83 82.004C918.361 80.992 918.009 79.9067 917.774 78.748C917.539 77.5747 917.422 76.3573 917.422 75.096V72.148ZM925.87 70.542H928.796V90.98H925.87V70.542ZM945.206 70.586H948.154V85.15H945.206V70.586ZM947.34 76.262H950.86V78.66H947.34V76.262ZM939.552 72.104H942.654C942.654 73.952 942.288 75.602 941.554 77.054C940.821 78.506 939.75 79.7453 938.342 80.772C936.949 81.7987 935.233 82.6053 933.194 83.192L931.984 80.882C933.642 80.4127 935.028 79.8113 936.142 79.078C937.272 78.3447 938.122 77.5087 938.694 76.57C939.266 75.6313 939.552 74.6193 939.552 73.534V72.104ZM932.864 72.104H941.114V74.436H932.864V72.104ZM934.998 88.252H948.858V90.606H934.998V88.252ZM934.998 83.676H937.924V89.308H934.998V83.676ZM971.438 70.542H974.364V90.98H971.438V70.542ZM963.386 71.972C964.428 71.972 965.352 72.2727 966.158 72.874C966.965 73.4607 967.596 74.304 968.05 75.404C968.52 76.4893 968.754 77.7727 968.754 79.254C968.754 80.75 968.52 82.048 968.05 83.148C967.596 84.2333 966.965 85.0767 966.158 85.678C965.352 86.2647 964.428 86.558 963.386 86.558C962.36 86.558 961.443 86.2647 960.636 85.678C959.83 85.0767 959.192 84.2333 958.722 83.148C958.268 82.048 958.04 80.75 958.04 79.254C958.04 77.7727 958.268 76.4893 958.722 75.404C959.192 74.304 959.83 73.4607 960.636 72.874C961.443 72.2727 962.36 71.972 963.386 71.972ZM963.386 74.634C962.888 74.634 962.448 74.81 962.066 75.162C961.685 75.514 961.384 76.0347 961.164 76.724C960.959 77.3987 960.856 78.242 960.856 79.254C960.856 80.2513 960.959 81.102 961.164 81.806C961.384 82.4953 961.685 83.016 962.066 83.368C962.448 83.72 962.888 83.896 963.386 83.896C963.9 83.896 964.347 83.72 964.728 83.368C965.11 83.016 965.403 82.4953 965.608 81.806C965.828 81.102 965.938 80.2513 965.938 79.254C965.938 78.242 965.828 77.3987 965.608 76.724C965.403 76.0347 965.11 75.514 964.728 75.162C964.347 74.81 963.9 74.634 963.386 74.634ZM982.173 71.664H984.571V73.49C984.571 74.8247 984.365 76.0933 983.955 77.296C983.559 78.484 982.943 79.5253 982.107 80.42C981.271 81.3147 980.207 81.982 978.917 82.422L977.377 80.134C978.521 79.738 979.445 79.2027 980.149 78.528C980.853 77.8387 981.366 77.054 981.689 76.174C982.011 75.294 982.173 74.3993 982.173 73.49V71.664ZM982.767 71.664H985.121V73.754C985.121 74.37 985.209 74.9713 985.385 75.558C985.575 76.1447 985.854 76.6947 986.221 77.208C986.587 77.7213 987.057 78.1833 987.629 78.594C988.201 78.99 988.89 79.3127 989.697 79.562L988.179 81.85C986.947 81.4393 985.927 80.8307 985.121 80.024C984.329 79.2173 983.735 78.2787 983.339 77.208C982.957 76.1373 982.767 74.986 982.767 73.754V71.664ZM990.797 70.586H993.723V82.62H990.797V70.586ZM992.931 75.294H996.429V77.714H992.931V75.294ZM987.079 83.082C988.501 83.082 989.726 83.2433 990.753 83.566C991.779 83.874 992.571 84.3213 993.129 84.908C993.686 85.48 993.965 86.184 993.965 87.02C993.965 87.8413 993.686 88.5453 993.129 89.132C992.571 89.7187 991.779 90.166 990.753 90.474C989.726 90.7967 988.501 90.958 987.079 90.958C985.671 90.958 984.446 90.7967 983.405 90.474C982.378 90.166 981.579 89.7187 981.007 89.132C980.449 88.5453 980.171 87.8413 980.171 87.02C980.171 86.184 980.449 85.48 981.007 84.908C981.579 84.3213 982.378 83.874 983.405 83.566C984.446 83.2433 985.671 83.082 987.079 83.082ZM987.079 85.348C986.213 85.348 985.487 85.414 984.901 85.546C984.314 85.6633 983.867 85.8467 983.559 86.096C983.251 86.3307 983.097 86.6387 983.097 87.02C983.097 87.3867 983.251 87.6947 983.559 87.944C983.867 88.1933 984.314 88.384 984.901 88.516C985.487 88.6333 986.213 88.692 987.079 88.692C987.944 88.692 988.67 88.6333 989.257 88.516C989.858 88.384 990.305 88.1933 990.599 87.944C990.907 87.6947 991.061 87.3867 991.061 87.02C991.061 86.6387 990.907 86.3307 990.599 86.096C990.305 85.8467 989.858 85.6633 989.257 85.546C988.67 85.414 987.944 85.348 987.079 85.348ZM813.168 98.686H826.038V101.018H813.168V98.686ZM810.902 106.584H829.36V108.916H810.902V106.584ZM824.3 98.686H827.204V100.446C827.204 101.414 827.175 102.463 827.116 103.592C827.072 104.721 826.889 106.019 826.566 107.486L823.684 107.222C823.992 105.785 824.168 104.538 824.212 103.482C824.271 102.411 824.3 101.399 824.3 100.446V98.686ZM813.212 115.252H827.776V117.584H813.212V115.252ZM813.212 110.654H816.116V115.472H813.212V110.654ZM831.14 108.96H849.576V111.314H831.14V108.96ZM838.818 110.456H841.744V117.958H838.818V110.456ZM833.252 98.576H847.376V106.782H833.252V98.576ZM844.516 100.864H836.134V104.494H844.516V100.864ZM864.425 97.586H867.351V117.958H864.425V97.586ZM866.691 105.528H870.277V107.948H866.691V105.528ZM851.269 100.578H863.149V102.91H851.269V100.578ZM857.253 104.076C858.235 104.076 859.115 104.289 859.893 104.714C860.67 105.125 861.279 105.689 861.719 106.408C862.173 107.127 862.401 107.963 862.401 108.916C862.401 109.869 862.173 110.713 861.719 111.446C861.279 112.165 860.67 112.737 859.893 113.162C859.13 113.573 858.25 113.778 857.253 113.778C856.27 113.778 855.383 113.573 854.591 113.162C853.813 112.737 853.197 112.165 852.743 111.446C852.303 110.713 852.083 109.869 852.083 108.916C852.083 107.963 852.303 107.127 852.743 106.408C853.197 105.689 853.813 105.125 854.591 104.714C855.383 104.289 856.27 104.076 857.253 104.076ZM857.253 106.452C856.783 106.452 856.373 106.547 856.021 106.738C855.669 106.929 855.39 107.207 855.185 107.574C854.979 107.941 854.877 108.388 854.877 108.916C854.877 109.429 854.979 109.877 855.185 110.258C855.39 110.625 855.669 110.911 856.021 111.116C856.373 111.307 856.783 111.402 857.253 111.402C857.707 111.402 858.111 111.307 858.463 111.116C858.815 110.911 859.093 110.625 859.299 110.258C859.504 109.877 859.607 109.429 859.607 108.916C859.607 108.388 859.504 107.941 859.299 107.574C859.093 107.207 858.815 106.929 858.463 106.738C858.111 106.547 857.707 106.452 857.253 106.452ZM855.757 97.916H858.705V101.48H855.757V97.916ZM873.883 103.064H888.007V105.396H873.883V103.064ZM871.617 107.508H890.053V109.84H871.617V107.508ZM873.883 98.29H876.809V104.23H873.883V98.29ZM873.707 115.164H888.117V117.518H873.707V115.164ZM873.707 111.446H876.633V115.802H873.707V111.446ZM911.049 97.564H913.997V111.094H911.049V97.564ZM907.551 102.976H911.489V105.33H907.551V102.976ZM904.339 99.104H907.441C907.441 100.967 907.111 102.617 906.451 104.054C905.791 105.477 904.794 106.701 903.459 107.728C902.139 108.755 900.452 109.591 898.399 110.236L897.189 107.97C898.89 107.457 900.262 106.833 901.303 106.1C902.359 105.352 903.129 104.501 903.613 103.548C904.097 102.58 904.339 101.531 904.339 100.402V99.104ZM898.223 99.104H906.495V101.436H898.223V99.104ZM905.659 109.598H908.145V110.258C908.145 111.197 907.976 112.084 907.639 112.92C907.316 113.756 906.825 114.511 906.165 115.186C905.505 115.846 904.691 116.411 903.723 116.88C902.77 117.349 901.67 117.694 900.423 117.914L899.301 115.604C900.386 115.428 901.325 115.164 902.117 114.812C902.909 114.46 903.569 114.042 904.097 113.558C904.625 113.059 905.014 112.531 905.263 111.974C905.527 111.417 905.659 110.845 905.659 110.258V109.598ZM906.077 109.598H908.563V110.258C908.563 110.845 908.695 111.417 908.959 111.974C909.223 112.517 909.612 113.037 910.125 113.536C910.653 114.02 911.313 114.438 912.105 114.79C912.912 115.142 913.85 115.406 914.921 115.582L913.777 117.87C912.53 117.665 911.423 117.327 910.455 116.858C909.502 116.403 908.702 115.839 908.057 115.164C907.412 114.489 906.92 113.741 906.583 112.92C906.246 112.084 906.077 111.197 906.077 110.258V109.598ZM919.341 106.65H933.663V109.004H919.341V106.65ZM917.185 113.272H935.643V115.67H917.185V113.272ZM924.929 107.728H927.833V114.042H924.929V107.728ZM919.341 98.972H933.509V101.304H922.245V107.662H919.341V98.972ZM955.605 97.586H958.531V109.51H955.605V97.586ZM957.387 102.47H961.237V104.868H957.387V102.47ZM945.287 110.302H948.191V111.82H955.649V110.302H958.531V117.738H945.287V110.302ZM948.191 114.02V115.45H955.649V114.02H948.191ZM942.515 99.346H954.483V101.656H942.515V99.346ZM948.499 102.184C949.497 102.184 950.369 102.338 951.117 102.646C951.865 102.939 952.452 103.357 952.877 103.9C953.303 104.443 953.515 105.073 953.515 105.792C953.515 106.511 953.303 107.141 952.877 107.684C952.452 108.227 951.865 108.652 951.117 108.96C950.369 109.253 949.497 109.4 948.499 109.4C947.517 109.4 946.644 109.253 945.881 108.96C945.133 108.652 944.547 108.227 944.121 107.684C943.696 107.141 943.483 106.511 943.483 105.792C943.483 105.073 943.696 104.443 944.121 103.9C944.547 103.357 945.133 102.939 945.881 102.646C946.644 102.338 947.517 102.184 948.499 102.184ZM948.499 104.318C947.854 104.318 947.326 104.45 946.915 104.714C946.505 104.963 946.299 105.323 946.299 105.792C946.299 106.276 946.505 106.65 946.915 106.914C947.326 107.163 947.854 107.288 948.499 107.288C949.159 107.288 949.687 107.163 950.083 106.914C950.494 106.65 950.699 106.276 950.699 105.792C950.699 105.323 950.494 104.963 950.083 104.714C949.687 104.45 949.159 104.318 948.499 104.318ZM947.047 97.41H949.951V100.622H947.047V97.41ZM963.59 98.62H966.494V101.194H970.366V98.62H973.248V108.146H963.59V98.62ZM966.494 103.416V105.792H970.366V103.416H966.494ZM972.588 102.206H977.538V104.582H972.588V102.206ZM976.856 97.586H979.804V108.74H976.856V97.586ZM966.274 109.598H969.178V111.402H976.9V109.598H979.782V117.694H966.274V109.598ZM969.178 113.668V115.384H976.9V113.668H969.178ZM996.984 97.586H999.91V112.216H996.984V97.586ZM986.336 115.252H1000.44V117.606H986.336V115.252ZM986.336 110.764H989.262V116.22H986.336V110.764ZM988.822 98.884C989.863 98.884 990.802 99.104 991.638 99.544C992.474 99.984 993.134 100.593 993.618 101.37C994.117 102.147 994.366 103.042 994.366 104.054C994.366 105.037 994.117 105.924 993.618 106.716C993.134 107.493 992.474 108.109 991.638 108.564C990.802 109.004 989.863 109.224 988.822 109.224C987.781 109.224 986.842 109.004 986.006 108.564C985.17 108.109 984.503 107.493 984.004 106.716C983.52 105.924 983.278 105.037 983.278 104.054C983.278 103.042 983.52 102.147 984.004 101.37C984.503 100.593 985.17 99.984 986.006 99.544C986.842 99.104 987.781 98.884 988.822 98.884ZM988.822 101.392C988.323 101.392 987.869 101.502 987.458 101.722C987.047 101.927 986.725 102.228 986.49 102.624C986.255 103.005 986.138 103.482 986.138 104.054C986.138 104.597 986.255 105.066 986.49 105.462C986.725 105.843 987.047 106.144 987.458 106.364C987.869 106.569 988.323 106.672 988.822 106.672C989.321 106.672 989.775 106.569 990.186 106.364C990.597 106.144 990.919 105.843 991.154 105.462C991.389 105.066 991.506 104.597 991.506 104.054C991.506 103.482 991.389 103.005 991.154 102.624C990.919 102.228 990.597 101.927 990.186 101.722C989.775 101.502 989.321 101.392 988.822 101.392ZM1016.23 97.542H1019.18V117.914H1016.23V97.542ZM1018.43 105.352H1022.02V107.75H1018.43V105.352ZM1010.89 99.654H1013.77C1013.77 101.693 1013.47 103.621 1012.89 105.44C1012.32 107.259 1011.36 108.931 1010.03 110.456C1008.71 111.967 1006.92 113.287 1004.66 114.416L1003.01 112.194C1004.8 111.27 1006.27 110.229 1007.43 109.07C1008.61 107.911 1009.47 106.599 1010.03 105.132C1010.6 103.651 1010.89 102.001 1010.89 100.182V99.654ZM1004.13 99.654H1012.4V102.008H1004.13V99.654ZM1027.52 107.926H1030.44V113.624H1027.52V107.926ZM1034.91 107.926H1037.83V113.624H1034.91V107.926ZM1023.47 113.206H1041.93V115.582H1023.47V113.206ZM1032.66 98.576C1034.13 98.576 1035.44 98.8033 1036.58 99.258C1037.74 99.7127 1038.64 100.351 1039.29 101.172C1039.95 101.979 1040.28 102.939 1040.28 104.054C1040.28 105.154 1039.95 106.115 1039.29 106.936C1038.64 107.743 1037.74 108.373 1036.58 108.828C1035.44 109.283 1034.13 109.51 1032.66 109.51C1031.21 109.51 1029.91 109.283 1028.75 108.828C1027.6 108.373 1026.7 107.743 1026.04 106.936C1025.38 106.115 1025.05 105.154 1025.05 104.054C1025.05 102.939 1025.38 101.979 1026.04 101.172C1026.7 100.351 1027.6 99.7127 1028.75 99.258C1029.91 98.8033 1031.21 98.576 1032.66 98.576ZM1032.66 100.842C1031.73 100.842 1030.9 100.974 1030.18 101.238C1029.47 101.487 1028.92 101.847 1028.53 102.316C1028.13 102.785 1027.93 103.365 1027.93 104.054C1027.93 104.714 1028.13 105.286 1028.53 105.77C1028.92 106.239 1029.47 106.606 1030.18 106.87C1030.9 107.119 1031.73 107.244 1032.66 107.244C1033.62 107.244 1034.45 107.119 1035.15 106.87C1035.87 106.606 1036.42 106.239 1036.8 105.77C1037.2 105.286 1037.39 104.714 1037.39 104.054C1037.39 103.365 1037.2 102.785 1036.8 102.316C1036.42 101.847 1035.87 101.487 1035.15 101.238C1034.45 100.974 1033.62 100.842 1032.66 100.842ZM1046.99 111.203V110.937C1047 110.026 1047.08 109.299 1047.23 108.758C1047.4 108.216 1047.63 107.779 1047.94 107.445C1048.24 107.112 1048.61 106.81 1049.05 106.539C1049.37 106.331 1049.66 106.115 1049.91 105.891C1050.17 105.667 1050.37 105.419 1050.52 105.148C1050.67 104.872 1050.75 104.565 1050.75 104.227C1050.75 103.867 1050.66 103.552 1050.49 103.281C1050.32 103.01 1050.09 102.802 1049.8 102.656C1049.51 102.51 1049.19 102.437 1048.84 102.437C1048.51 102.437 1048.18 102.513 1047.88 102.664C1047.58 102.81 1047.33 103.029 1047.14 103.32C1046.95 103.607 1046.84 103.964 1046.83 104.391H1043.64C1043.67 103.349 1043.92 102.49 1044.39 101.812C1044.86 101.13 1045.49 100.622 1046.27 100.289C1047.05 99.9505 1047.92 99.7812 1048.86 99.7812C1049.9 99.7812 1050.81 99.9531 1051.61 100.297C1052.41 100.635 1053.03 101.128 1053.48 101.773C1053.94 102.419 1054.16 103.198 1054.16 104.109C1054.16 104.719 1054.06 105.26 1053.86 105.734C1053.66 106.203 1053.38 106.62 1053.02 106.984C1052.66 107.344 1052.24 107.669 1051.75 107.961C1051.34 108.206 1051 108.461 1050.73 108.727C1050.47 108.992 1050.28 109.299 1050.15 109.648C1050.02 109.997 1049.96 110.427 1049.95 110.937V111.203H1046.99ZM1048.54 116.203C1048.02 116.203 1047.57 116.021 1047.2 115.656C1046.84 115.286 1046.66 114.844 1046.66 114.328C1046.66 113.818 1046.84 113.38 1047.2 113.016C1047.57 112.651 1048.02 112.469 1048.54 112.469C1049.03 112.469 1049.47 112.651 1049.84 113.016C1050.22 113.38 1050.41 113.818 1050.41 114.328C1050.41 114.672 1050.32 114.987 1050.14 115.273C1049.97 115.555 1049.74 115.781 1049.46 115.953C1049.18 116.12 1048.87 116.203 1048.54 116.203ZM1058.65 100V106.078H1056.27V100H1058.65ZM1062.69 100V106.078H1060.31V100H1062.69Z" fill="#2E3C23"/>
<path d="M887.438 225V211.909H892.232C893.161 211.909 893.93 212.062 894.54 212.369C895.149 212.672 895.605 213.083 895.908 213.603C896.21 214.119 896.362 214.7 896.362 215.348C896.362 215.893 896.261 216.354 896.061 216.729C895.861 217.099 895.592 217.398 895.256 217.624C894.923 217.845 894.557 218.007 894.156 218.109V218.237C894.591 218.259 895.015 218.399 895.428 218.659C895.846 218.915 896.191 219.279 896.464 219.752C896.737 220.225 896.873 220.8 896.873 221.478C896.873 222.147 896.715 222.748 896.4 223.281C896.089 223.809 895.607 224.229 894.955 224.54C894.303 224.847 893.47 225 892.456 225H887.438ZM889.413 223.306H892.264C893.21 223.306 893.888 223.123 894.297 222.756C894.706 222.39 894.911 221.932 894.911 221.382C894.911 220.969 894.806 220.589 894.597 220.244C894.388 219.899 894.09 219.624 893.702 219.42C893.319 219.215 892.863 219.113 892.335 219.113H889.413V223.306ZM889.413 217.572H892.06C892.503 217.572 892.901 217.487 893.255 217.317C893.613 217.146 893.896 216.908 894.105 216.601C894.318 216.29 894.425 215.923 894.425 215.501C894.425 214.96 894.235 214.506 893.856 214.14C893.477 213.773 892.895 213.59 892.111 213.59H889.413V217.572ZM902.655 211.518H903.879V214.434C903.879 215.334 903.765 216.216 903.537 217.08C903.321 217.944 903.009 218.754 902.601 219.51C902.193 220.266 901.713 220.938 901.161 221.526C900.609 222.114 900.009 222.582 899.361 222.93L898.443 221.724C899.043 221.424 899.595 221.022 900.099 220.518C900.615 220.002 901.065 219.414 901.449 218.754C901.833 218.094 902.127 217.398 902.331 216.666C902.547 215.922 902.655 215.178 902.655 214.434V211.518ZM902.925 211.518H904.131V214.434C904.131 215.154 904.233 215.868 904.437 216.576C904.653 217.284 904.953 217.95 905.337 218.574C905.721 219.198 906.159 219.756 906.651 220.248C907.155 220.74 907.695 221.13 908.271 221.418L907.353 222.606C906.717 222.282 906.129 221.838 905.589 221.274C905.061 220.71 904.593 220.068 904.185 219.348C903.789 218.616 903.477 217.836 903.249 217.008C903.033 216.168 902.925 215.31 902.925 214.434V211.518ZM909.693 210.114H911.187V226.404H909.693V210.114ZM910.845 216.702H913.851V217.98H910.845V216.702ZM931.142 210.114H932.636V218.394H931.142V210.114ZM931.97 213.624H935.03V214.866H931.97V213.624ZM922.286 219.168H932.636V223.164H923.798V225.612H922.34V222.048H931.16V220.356H922.286V219.168ZM922.34 224.982H933.212V226.188H922.34V224.982ZM924.5 210.708C925.316 210.708 926.036 210.858 926.66 211.158C927.296 211.458 927.794 211.884 928.154 212.436C928.514 212.976 928.694 213.606 928.694 214.326C928.694 215.034 928.514 215.664 928.154 216.216C927.794 216.756 927.296 217.182 926.66 217.494C926.036 217.794 925.316 217.944 924.5 217.944C923.696 217.944 922.976 217.794 922.34 217.494C921.704 217.182 921.2 216.756 920.828 216.216C920.468 215.664 920.288 215.028 920.288 214.308C920.288 213.6 920.468 212.976 920.828 212.436C921.2 211.884 921.704 211.458 922.34 211.158C922.976 210.858 923.696 210.708 924.5 210.708ZM924.5 211.932C923.972 211.932 923.498 212.034 923.078 212.238C922.67 212.442 922.346 212.724 922.106 213.084C921.866 213.432 921.746 213.846 921.746 214.326C921.746 214.794 921.866 215.208 922.106 215.568C922.346 215.928 922.67 216.216 923.078 216.432C923.498 216.636 923.972 216.738 924.5 216.738C925.028 216.738 925.496 216.636 925.904 216.432C926.324 216.216 926.654 215.928 926.894 215.568C927.134 215.208 927.254 214.794 927.254 214.326C927.254 213.846 927.134 213.432 926.894 213.084C926.654 212.724 926.324 212.442 925.904 212.238C925.496 212.034 925.028 211.932 924.5 211.932ZM947.574 210.114H949.068V226.404H947.574V210.114ZM948.726 216.522H951.732V217.8H948.726V216.522ZM937.206 211.5H938.682V215.784H943.308V211.5H944.784V222.498H937.206V211.5ZM938.682 216.972V221.256H943.308V216.972H938.682ZM956.519 211.14H957.707V213.318C957.707 214.122 957.557 214.92 957.257 215.712C956.957 216.504 956.525 217.218 955.961 217.854C955.409 218.49 954.731 218.988 953.927 219.348L953.117 218.196C953.825 217.884 954.431 217.464 954.935 216.936C955.451 216.396 955.841 215.808 956.105 215.172C956.381 214.536 956.519 213.918 956.519 213.318V211.14ZM956.771 211.14H957.959V213.318C957.959 213.906 958.085 214.494 958.337 215.082C958.601 215.658 958.979 216.18 959.471 216.648C959.975 217.104 960.569 217.47 961.253 217.746L960.461 218.898C959.681 218.586 959.015 218.142 958.463 217.566C957.911 216.99 957.491 216.336 957.203 215.604C956.915 214.872 956.771 214.11 956.771 213.318V211.14ZM965.411 210.132H966.833V220.176H965.411V210.132ZM962.819 214.488H965.879V215.712H962.819V214.488ZM961.919 210.438H963.323V219.654H961.919V210.438ZM961.487 220.536C962.603 220.536 963.563 220.65 964.367 220.878C965.183 221.106 965.813 221.442 966.257 221.886C966.701 222.318 966.923 222.84 966.923 223.452C966.923 224.064 966.701 224.586 966.257 225.018C965.813 225.462 965.183 225.798 964.367 226.026C963.563 226.254 962.603 226.368 961.487 226.368C960.371 226.368 959.405 226.254 958.589 226.026C957.773 225.798 957.143 225.462 956.699 225.018C956.267 224.586 956.051 224.064 956.051 223.452C956.051 222.84 956.267 222.318 956.699 221.886C957.143 221.442 957.773 221.106 958.589 220.878C959.405 220.65 960.371 220.536 961.487 220.536ZM961.487 221.688C960.263 221.688 959.297 221.844 958.589 222.156C957.881 222.468 957.527 222.9 957.527 223.452C957.527 224.004 957.881 224.436 958.589 224.748C959.297 225.06 960.263 225.216 961.487 225.216C962.303 225.216 963.005 225.144 963.593 225C964.181 224.868 964.631 224.67 964.943 224.406C965.267 224.142 965.429 223.824 965.429 223.452C965.429 222.9 965.075 222.468 964.367 222.156C963.671 221.844 962.711 221.688 961.487 221.688ZM978.543 211.032H979.785V212.706C979.785 213.762 979.593 214.734 979.209 215.622C978.837 216.51 978.309 217.29 977.625 217.962C976.953 218.622 976.149 219.126 975.213 219.474L974.421 218.268C975.261 217.968 975.987 217.542 976.599 216.99C977.211 216.438 977.685 215.796 978.021 215.064C978.369 214.32 978.543 213.534 978.543 212.706V211.032ZM978.813 211.032H980.019V212.652C980.019 213.42 980.187 214.146 980.523 214.83C980.859 215.514 981.321 216.12 981.909 216.648C982.509 217.164 983.205 217.554 983.997 217.818L983.187 218.988C982.311 218.652 981.543 218.178 980.883 217.566C980.223 216.954 979.713 216.228 979.353 215.388C978.993 214.548 978.813 213.636 978.813 212.652V211.032ZM986.337 210.114H987.831V219.744H986.337V210.114ZM982.467 220.23C984.147 220.23 985.467 220.5 986.427 221.04C987.399 221.58 987.885 222.336 987.885 223.308C987.885 224.268 987.399 225.018 986.427 225.558C985.467 226.098 984.147 226.368 982.467 226.368C980.787 226.368 979.461 226.098 978.489 225.558C977.529 225.018 977.049 224.268 977.049 223.308C977.049 222.336 977.529 221.58 978.489 221.04C979.461 220.5 980.787 220.23 982.467 220.23ZM982.467 221.418C981.651 221.418 980.949 221.496 980.361 221.652C979.773 221.796 979.317 222.012 978.993 222.3C978.681 222.576 978.525 222.912 978.525 223.308C978.525 223.692 978.681 224.028 978.993 224.316C979.317 224.592 979.773 224.808 980.361 224.964C980.949 225.108 981.651 225.18 982.467 225.18C983.295 225.18 983.997 225.108 984.573 224.964C985.161 224.808 985.611 224.592 985.923 224.316C986.247 224.028 986.409 223.692 986.409 223.308C986.409 222.912 986.247 222.576 985.923 222.3C985.611 222.012 985.161 221.796 984.573 221.652C983.997 221.496 983.295 221.418 982.467 221.418ZM982.791 213.552H986.643V214.794H982.791V213.552ZM1002.91 218.455C1002.91 219.852 1002.65 221.054 1002.14 222.06C1001.63 223.061 1000.93 223.832 1000.04 224.374C999.151 224.911 998.143 225.179 997.014 225.179C995.88 225.179 994.868 224.911 993.978 224.374C993.091 223.832 992.392 223.059 991.881 222.053C991.37 221.048 991.114 219.848 991.114 218.455C991.114 217.057 991.37 215.857 991.881 214.856C992.392 213.85 993.091 213.079 993.978 212.542C994.868 212.001 995.88 211.73 997.014 211.73C998.143 211.73 999.151 212.001 1000.04 212.542C1000.93 213.079 1001.63 213.85 1002.14 214.856C1002.65 215.857 1002.91 217.057 1002.91 218.455ZM1000.95 218.455C1000.95 217.389 1000.78 216.492 1000.43 215.763C1000.09 215.031 999.624 214.477 999.027 214.102C998.435 213.722 997.764 213.533 997.014 213.533C996.26 213.533 995.586 213.722 994.994 214.102C994.402 214.477 993.933 215.031 993.588 215.763C993.247 216.492 993.076 217.389 993.076 218.455C993.076 219.52 993.247 220.419 993.588 221.152C993.933 221.881 994.402 222.435 994.994 222.814C995.586 223.189 996.26 223.376 997.014 223.376C997.764 223.376 998.435 223.189 999.027 222.814C999.624 222.435 1000.09 221.881 1000.43 221.152C1000.78 220.419 1000.95 219.52 1000.95 218.455ZM1016.74 218.455C1016.74 219.852 1016.49 221.054 1015.97 222.06C1015.46 223.061 1014.76 223.832 1013.87 224.374C1012.98 224.911 1011.98 225.179 1010.85 225.179C1009.71 225.179 1008.7 224.911 1007.81 224.374C1006.93 223.832 1006.23 223.059 1005.72 222.053C1005.2 221.048 1004.95 219.848 1004.95 218.455C1004.95 217.057 1005.2 215.857 1005.72 214.856C1006.23 213.85 1006.93 213.079 1007.81 212.542C1008.7 212.001 1009.71 211.73 1010.85 211.73C1011.98 211.73 1012.98 212.001 1013.87 212.542C1014.76 213.079 1015.46 213.85 1015.97 214.856C1016.49 215.857 1016.74 217.057 1016.74 218.455ZM1014.79 218.455C1014.79 217.389 1014.61 216.492 1014.27 215.763C1013.93 215.031 1013.46 214.477 1012.86 214.102C1012.27 213.722 1011.6 213.533 1010.85 213.533C1010.09 213.533 1009.42 213.722 1008.83 214.102C1008.24 214.477 1007.77 215.031 1007.42 215.763C1007.08 216.492 1006.91 217.389 1006.91 218.455C1006.91 219.52 1007.08 220.419 1007.42 221.152C1007.77 221.881 1008.24 222.435 1008.83 222.814C1009.42 223.189 1010.09 223.376 1010.85 223.376C1011.6 223.376 1012.27 223.189 1012.86 222.814C1013.46 222.435 1013.93 221.881 1014.27 221.152C1014.61 220.419 1014.79 219.52 1014.79 218.455Z" fill="#2E3C23"/>
<path d="M1055.88 239.889C1055.12 239.222 1054.4 238.516 1053.71 237.776C1053.42 237.465 1053.14 237.148 1052.87 236.825C1048.58 231.761 1046 225.208 1046 218.049C1046 202.006 1058.98 189 1075 189C1091.02 189 1104 202.006 1104 218.049C1104 225.208 1101.41 231.761 1097.13 236.824C1096.86 237.148 1096.58 237.465 1096.29 237.775C1095.6 238.516 1094.88 239.221 1094.12 239.888H1055.88V239.889Z" fill="#DCDCE0"/>
<path d="M1094.12 239.888C1089.02 244.377 1082.33 247.099 1075 247.099C1067.67 247.099 1060.98 244.378 1055.88 239.888C1060.17 233.061 1067.14 228.621 1075 228.621C1082.86 228.621 1089.83 233.061 1094.12 239.888Z" fill="#AAAAB2"/>
<path d="M1075 223.765C1081.47 223.765 1086.71 218.513 1086.71 212.033C1086.71 205.553 1081.47 200.3 1075 200.3C1068.53 200.3 1063.29 205.553 1063.29 212.033C1063.29 218.513 1068.53 223.765 1075 223.765Z" fill="#AAAAB2"/>
<g filter="url(#filter1_d_216_27)">
<rect x="390" y="4" width="358" height="266" rx="20" fill="white"/>
</g>
<path d="M410.211 78V76.3125C410.211 75.8333 410.305 75.3437 410.492 74.8437C410.68 74.3437 410.927 73.8724 411.234 73.4297C411.542 72.987 411.875 72.6172 412.234 72.3203L413.703 73.1875C413.411 73.6458 413.172 74.125 412.984 74.625C412.802 75.125 412.711 75.6823 412.711 76.2969V78H410.211ZM414.156 78V76.3125C414.156 75.8333 414.25 75.3437 414.438 74.8437C414.625 74.3437 414.872 73.8724 415.18 73.4297C415.487 72.987 415.82 72.6172 416.18 72.3203L417.648 73.1875C417.357 73.6458 417.117 74.125 416.93 74.625C416.747 75.125 416.656 75.6823 416.656 76.2969V78H414.156ZM424.485 81.036H427.411V85.48H424.485V81.036ZM433.395 70.564H436.321V86.008H433.395V70.564ZM421.647 88.252H436.783V90.606H421.647V88.252ZM421.647 84.534H424.573V88.89H421.647V84.534ZM419.469 81.916L419.095 79.584C420.342 79.5693 421.699 79.5547 423.165 79.54C424.632 79.5107 426.128 79.452 427.653 79.364C429.179 79.276 430.645 79.144 432.053 78.968L432.251 81.058C430.799 81.3073 429.318 81.498 427.807 81.63C426.311 81.7473 424.852 81.8207 423.429 81.85C422.007 81.8793 420.687 81.9013 419.469 81.916ZM429.567 82.4H434.055V84.402H429.567V82.4ZM425.651 71.268C426.649 71.268 427.529 71.422 428.291 71.73C429.054 72.038 429.648 72.4633 430.073 73.006C430.513 73.5487 430.733 74.1867 430.733 74.92C430.733 75.6387 430.513 76.2767 430.073 76.834C429.648 77.3767 429.054 77.7947 428.291 78.088C427.529 78.3813 426.649 78.528 425.651 78.528C424.654 78.528 423.767 78.3813 422.989 78.088C422.227 77.7947 421.633 77.3767 421.207 76.834C420.782 76.2767 420.569 75.6387 420.569 74.92C420.569 74.1867 420.782 73.5487 421.207 73.006C421.633 72.4633 422.227 72.038 422.989 71.73C423.767 71.422 424.654 71.268 425.651 71.268ZM425.651 73.402C424.977 73.402 424.419 73.5267 423.979 73.776C423.554 74.0253 423.341 74.4067 423.341 74.92C423.341 75.404 423.554 75.778 423.979 76.042C424.419 76.2913 424.977 76.416 425.651 76.416C426.341 76.416 426.891 76.2913 427.301 76.042C427.727 75.778 427.939 75.404 427.939 74.92C427.939 74.5827 427.844 74.304 427.653 74.084C427.463 73.864 427.199 73.6953 426.861 73.578C426.524 73.4607 426.121 73.402 425.651 73.402ZM439.972 84.05H441.402C442.619 84.05 443.785 84.028 444.9 83.984C446.014 83.9253 447.202 83.7933 448.464 83.588L448.684 85.964C447.378 86.184 446.146 86.3233 444.988 86.382C443.844 86.426 442.648 86.448 441.402 86.448H439.972V84.05ZM439.928 72.566H447.65V80.442H442.81V84.908H439.972V78.132H444.834V74.876H439.928V72.566ZM454.118 70.564H456.912V90.936H454.118V70.564ZM451.412 78.264H454.8V80.618H451.412V78.264ZM449.564 70.916H452.27V89.99H449.564V70.916ZM470.208 71.972C471.249 71.972 472.166 72.2727 472.958 72.874C473.764 73.4607 474.395 74.304 474.85 75.404C475.319 76.4893 475.554 77.7727 475.554 79.254C475.554 80.75 475.319 82.048 474.85 83.148C474.395 84.2333 473.764 85.0767 472.958 85.678C472.166 86.2647 471.249 86.558 470.208 86.558C469.166 86.558 468.242 86.2647 467.436 85.678C466.629 85.0767 465.991 84.2333 465.522 83.148C465.067 82.048 464.84 80.75 464.84 79.254C464.84 77.7727 465.067 76.4893 465.522 75.404C465.991 74.304 466.629 73.4607 467.436 72.874C468.242 72.2727 469.166 71.972 470.208 71.972ZM470.208 74.634C469.709 74.634 469.262 74.81 468.866 75.162C468.484 75.514 468.184 76.0347 467.964 76.724C467.758 77.3987 467.656 78.242 467.656 79.254C467.656 80.2513 467.758 81.102 467.964 81.806C468.184 82.4953 468.484 83.016 468.866 83.368C469.262 83.72 469.709 83.896 470.208 83.896C470.706 83.896 471.146 83.72 471.528 83.368C471.909 83.016 472.202 82.4953 472.408 81.806C472.628 81.102 472.738 80.2513 472.738 79.254C472.738 78.242 472.628 77.3987 472.408 76.724C472.202 76.0347 471.909 75.514 471.528 75.162C471.146 74.81 470.706 74.634 470.208 74.634ZM479.91 75.316H483.496V77.714H479.91V75.316ZM479.91 81.278H483.496V83.676H479.91V81.278ZM477.754 70.586H480.702V90.958H477.754V70.586ZM498.058 70.586H501.006V85.15H498.058V70.586ZM500.192 76.262H503.712V78.66H500.192V76.262ZM492.404 72.104H495.506C495.506 73.952 495.139 75.602 494.406 77.054C493.673 78.506 492.602 79.7453 491.194 80.772C489.801 81.7987 488.085 82.6053 486.046 83.192L484.836 80.882C486.493 80.4127 487.879 79.8113 488.994 79.078C490.123 78.3447 490.974 77.5087 491.546 76.57C492.118 75.6313 492.404 74.6193 492.404 73.534V72.104ZM485.716 72.104H493.966V74.436H485.716V72.104ZM487.85 88.252H501.71V90.606H487.85V88.252ZM487.85 83.676H490.776V89.308H487.85V83.676ZM507.494 71.686H520.364V74.018H507.494V71.686ZM505.228 79.584H523.686V81.916H505.228V79.584ZM518.626 71.686H521.53V73.446C521.53 74.414 521.501 75.4627 521.442 76.592C521.398 77.7213 521.215 79.0193 520.892 80.486L518.01 80.222C518.318 78.7847 518.494 77.538 518.538 76.482C518.597 75.4113 518.626 74.3993 518.626 73.446V71.686ZM507.538 88.252H522.102V90.584H507.538V88.252ZM507.538 83.654H510.442V88.472H507.538V83.654ZM525.466 81.96H543.902V84.314H525.466V81.96ZM533.144 83.456H536.07V90.958H533.144V83.456ZM527.578 71.576H541.702V79.782H527.578V71.576ZM538.842 73.864H530.46V77.494H538.842V73.864ZM558.475 71.158H561.027V72.126C561.027 72.9033 560.902 73.6587 560.653 74.392C560.418 75.1107 560.066 75.7853 559.597 76.416C559.127 77.0467 558.555 77.6113 557.881 78.11C557.206 78.6087 556.421 79.034 555.527 79.386C554.647 79.7233 553.679 79.98 552.623 80.156L551.479 77.802C552.417 77.6847 553.253 77.4867 553.987 77.208C554.735 76.9293 555.387 76.5993 555.945 76.218C556.517 75.8367 556.986 75.4187 557.353 74.964C557.719 74.5093 557.998 74.04 558.189 73.556C558.379 73.072 558.475 72.5953 558.475 72.126V71.158ZM559.025 71.158H561.577V72.126C561.577 72.5953 561.672 73.072 561.863 73.556C562.053 74.04 562.332 74.5093 562.699 74.964C563.065 75.4187 563.527 75.8367 564.085 76.218C564.657 76.5993 565.309 76.9293 566.043 77.208C566.791 77.4867 567.634 77.6847 568.573 77.802L567.429 80.156C566.358 79.98 565.383 79.7233 564.503 79.386C563.623 79.034 562.845 78.6087 562.171 78.11C561.496 77.5967 560.924 77.0247 560.455 76.394C559.985 75.7633 559.626 75.0887 559.377 74.37C559.142 73.6513 559.025 72.9033 559.025 72.126V71.158ZM558.475 83.478H561.401V90.958H558.475V83.478ZM550.797 81.63H569.233V84.006H550.797V81.63ZM584.147 70.564H587.095V82.334H584.147V70.564ZM586.259 75.382H589.757V77.78H586.259V75.382ZM580.407 82.686C581.815 82.686 583.032 82.8547 584.059 83.192C585.085 83.5293 585.877 84.006 586.435 84.622C587.007 85.2233 587.293 85.9567 587.293 86.822C587.293 87.6873 587.007 88.428 586.435 89.044C585.877 89.6747 585.085 90.1513 584.059 90.474C583.032 90.8113 581.815 90.98 580.407 90.98C579.013 90.98 577.796 90.8113 576.755 90.474C575.713 90.1513 574.907 89.6747 574.335 89.044C573.777 88.428 573.499 87.6873 573.499 86.822C573.499 85.9567 573.777 85.2233 574.335 84.622C574.907 84.006 575.713 83.5293 576.755 83.192C577.796 82.8547 579.013 82.686 580.407 82.686ZM580.407 85.018C579.541 85.018 578.815 85.084 578.229 85.216C577.642 85.348 577.187 85.546 576.865 85.81C576.557 86.074 576.403 86.4113 576.403 86.822C576.403 87.218 576.557 87.5553 576.865 87.834C577.187 88.098 577.642 88.296 578.229 88.428C578.815 88.56 579.541 88.626 580.407 88.626C581.272 88.626 581.998 88.56 582.585 88.428C583.186 88.296 583.641 88.098 583.949 87.834C584.257 87.5553 584.411 87.218 584.411 86.822C584.411 86.4113 584.257 86.074 583.949 85.81C583.641 85.546 583.186 85.348 582.585 85.216C581.998 85.084 581.272 85.018 580.407 85.018ZM571.717 78.924H573.433C574.929 78.924 576.205 78.9093 577.261 78.88C578.317 78.8507 579.263 78.792 580.099 78.704C580.935 78.6013 581.763 78.462 582.585 78.286L582.871 80.618C582.035 80.794 581.184 80.9333 580.319 81.036C579.453 81.124 578.471 81.19 577.371 81.234C576.285 81.2633 574.973 81.278 573.433 81.278H571.717V78.924ZM571.717 71.928H580.847V74.282H574.643V80.53H571.717V71.928ZM591.251 80.97H609.687V83.28H591.251V80.97ZM593.495 88.252H607.619V90.606H593.495V88.252ZM593.495 84.644H596.421V89H593.495V84.644ZM600.469 71.18C601.95 71.18 603.241 71.3487 604.341 71.686C605.456 72.0233 606.321 72.5073 606.937 73.138C607.553 73.7687 607.861 74.5093 607.861 75.36C607.861 76.2253 607.553 76.9733 606.937 77.604C606.321 78.2347 605.456 78.7187 604.341 79.056C603.241 79.3933 601.95 79.562 600.469 79.562C599.002 79.562 597.712 79.3933 596.597 79.056C595.497 78.7187 594.639 78.2347 594.023 77.604C593.407 76.9733 593.099 76.2253 593.099 75.36C593.099 74.5093 593.407 73.7687 594.023 73.138C594.639 72.5073 595.497 72.0233 596.597 71.686C597.712 71.3487 599.002 71.18 600.469 71.18ZM600.469 73.49C599.574 73.49 598.797 73.5633 598.137 73.71C597.477 73.8567 596.978 74.0693 596.641 74.348C596.304 74.612 596.135 74.9493 596.135 75.36C596.135 75.7707 596.304 76.1153 596.641 76.394C596.978 76.6727 597.477 76.8853 598.137 77.032C598.797 77.1787 599.574 77.252 600.469 77.252C601.393 77.252 602.178 77.1787 602.823 77.032C603.468 76.8853 603.96 76.6727 604.297 76.394C604.649 76.1153 604.825 75.7707 604.825 75.36C604.825 74.9493 604.649 74.612 604.297 74.348C603.96 74.0693 603.468 73.8567 602.823 73.71C602.178 73.5633 601.393 73.49 600.469 73.49ZM417.426 99.83H419.978V100.446C419.978 101.15 419.861 101.832 419.626 102.492C419.406 103.152 419.069 103.768 418.614 104.34C418.159 104.897 417.602 105.403 416.942 105.858C416.297 106.298 415.549 106.672 414.698 106.98C413.847 107.288 412.901 107.508 411.86 107.64L410.782 105.374C411.691 105.257 412.498 105.081 413.202 104.846C413.921 104.597 414.544 104.311 415.072 103.988C415.6 103.651 416.04 103.291 416.392 102.91C416.744 102.529 417.001 102.125 417.162 101.7C417.338 101.275 417.426 100.857 417.426 100.446V99.83ZM418.284 99.83H420.814V100.446C420.814 100.857 420.895 101.275 421.056 101.7C421.232 102.125 421.496 102.529 421.848 102.91C422.2 103.291 422.64 103.651 423.168 103.988C423.711 104.311 424.334 104.597 425.038 104.846C425.742 105.081 426.549 105.257 427.458 105.374L426.38 107.64C425.339 107.508 424.393 107.288 423.542 106.98C422.691 106.672 421.936 106.298 421.276 105.858C420.631 105.403 420.081 104.897 419.626 104.34C419.186 103.768 418.849 103.152 418.614 102.492C418.394 101.832 418.284 101.15 418.284 100.446V99.83ZM417.58 110.5H420.506V117.958H417.58V110.5ZM409.902 108.806H428.338V111.16H409.902V108.806ZM411.53 98.62H426.644V100.93H411.53V98.62ZM442.588 100V116H439.205V103.211H439.111L435.447 105.508V102.508L439.408 100H442.588ZM452.234 116.219C451.13 116.219 450.146 116.016 449.281 115.609C448.422 115.203 447.74 114.643 447.234 113.93C446.729 113.216 446.466 112.398 446.445 111.477H449.727C449.763 112.096 450.023 112.599 450.508 112.984C450.992 113.37 451.568 113.562 452.234 113.562C452.766 113.562 453.234 113.445 453.641 113.211C454.052 112.971 454.372 112.641 454.602 112.219C454.836 111.792 454.953 111.302 454.953 110.75C454.953 110.187 454.833 109.693 454.594 109.266C454.359 108.839 454.034 108.505 453.617 108.266C453.201 108.026 452.724 107.904 452.188 107.898C451.719 107.898 451.263 107.995 450.82 108.187C450.383 108.38 450.042 108.643 449.797 108.977L446.789 108.438L447.547 100H457.328V102.766H450.336L449.922 106.773H450.016C450.297 106.378 450.721 106.049 451.289 105.789C451.857 105.529 452.492 105.398 453.195 105.398C454.159 105.398 455.018 105.625 455.773 106.078C456.529 106.531 457.125 107.154 457.563 107.945C458 108.732 458.216 109.638 458.211 110.664C458.216 111.742 457.966 112.701 457.461 113.539C456.961 114.372 456.26 115.029 455.359 115.508C454.464 115.982 453.422 116.219 452.234 116.219ZM465.125 99.148H467.523V102.096C467.523 103.416 467.406 104.685 467.171 105.902C466.937 107.105 466.577 108.234 466.093 109.29C465.624 110.331 465.015 111.255 464.267 112.062C463.534 112.854 462.661 113.485 461.649 113.954L459.911 111.534C460.806 111.138 461.576 110.617 462.221 109.972C462.881 109.312 463.424 108.564 463.849 107.728C464.275 106.877 464.59 105.975 464.795 105.022C465.015 104.069 465.125 103.093 465.125 102.096V99.148ZM465.697 99.148H468.073V102.096C468.073 103.049 468.176 103.981 468.381 104.89C468.587 105.799 468.895 106.657 469.305 107.464C469.731 108.271 470.259 108.989 470.889 109.62C471.535 110.236 472.29 110.727 473.155 111.094L471.461 113.47C470.479 113.015 469.621 112.407 468.887 111.644C468.169 110.881 467.575 110.001 467.105 109.004C466.636 107.992 466.284 106.907 466.049 105.748C465.815 104.575 465.697 103.357 465.697 102.096V99.148ZM474.145 97.542H477.071V117.98H474.145V97.542ZM493.482 97.586H496.43V112.15H493.482V97.586ZM495.616 103.262H499.136V105.66H495.616V103.262ZM487.828 99.104H490.93C490.93 100.952 490.563 102.602 489.83 104.054C489.096 105.506 488.026 106.745 486.618 107.772C485.224 108.799 483.508 109.605 481.47 110.192L480.26 107.882C481.917 107.413 483.303 106.811 484.418 106.078C485.547 105.345 486.398 104.509 486.97 103.57C487.542 102.631 487.828 101.619 487.828 100.534V99.104ZM481.14 99.104H489.39V101.436H481.14V99.104ZM483.274 115.252H497.134V117.606H483.274V115.252ZM483.274 110.676H486.2V116.308H483.274V110.676ZM519.714 97.542H522.64V117.98H519.714V97.542ZM511.662 98.972C512.703 98.972 513.627 99.2727 514.434 99.874C515.24 100.461 515.871 101.304 516.326 102.404C516.795 103.489 517.03 104.773 517.03 106.254C517.03 107.75 516.795 109.048 516.326 110.148C515.871 111.233 515.24 112.077 514.434 112.678C513.627 113.265 512.703 113.558 511.662 113.558C510.635 113.558 509.718 113.265 508.912 112.678C508.105 112.077 507.467 111.233 506.998 110.148C506.543 109.048 506.316 107.75 506.316 106.254C506.316 104.773 506.543 103.489 506.998 102.404C507.467 101.304 508.105 100.461 508.912 99.874C509.718 99.2727 510.635 98.972 511.662 98.972ZM511.662 101.634C511.163 101.634 510.723 101.81 510.342 102.162C509.96 102.514 509.66 103.035 509.44 103.724C509.234 104.399 509.132 105.242 509.132 106.254C509.132 107.251 509.234 108.102 509.44 108.806C509.66 109.495 509.96 110.016 510.342 110.368C510.723 110.72 511.163 110.896 511.662 110.896C512.175 110.896 512.622 110.72 513.004 110.368C513.385 110.016 513.678 109.495 513.884 108.806C514.104 108.102 514.214 107.251 514.214 106.254C514.214 105.242 514.104 104.399 513.884 103.724C513.678 103.035 513.385 102.514 513.004 102.162C512.622 101.81 512.175 101.634 511.662 101.634ZM530.448 98.664H532.846V100.49C532.846 101.825 532.641 103.093 532.23 104.296C531.834 105.484 531.218 106.525 530.382 107.42C529.546 108.315 528.483 108.982 527.192 109.422L525.652 107.134C526.796 106.738 527.72 106.203 528.424 105.528C529.128 104.839 529.641 104.054 529.964 103.174C530.287 102.294 530.448 101.399 530.448 100.49V98.664ZM531.042 98.664H533.396V100.754C533.396 101.37 533.484 101.971 533.66 102.558C533.851 103.145 534.129 103.695 534.496 104.208C534.863 104.721 535.332 105.183 535.904 105.594C536.476 105.99 537.165 106.313 537.972 106.562L536.454 108.85C535.222 108.439 534.203 107.831 533.396 107.024C532.604 106.217 532.01 105.279 531.614 104.208C531.233 103.137 531.042 101.986 531.042 100.754V98.664ZM539.072 97.586H541.998V109.62H539.072V97.586ZM541.206 102.294H544.704V104.714H541.206V102.294ZM535.354 110.082C536.777 110.082 538.001 110.243 539.028 110.566C540.055 110.874 540.847 111.321 541.404 111.908C541.961 112.48 542.24 113.184 542.24 114.02C542.24 114.841 541.961 115.545 541.404 116.132C540.847 116.719 540.055 117.166 539.028 117.474C538.001 117.797 536.777 117.958 535.354 117.958C533.946 117.958 532.721 117.797 531.68 117.474C530.653 117.166 529.854 116.719 529.282 116.132C528.725 115.545 528.446 114.841 528.446 114.02C528.446 113.184 528.725 112.48 529.282 111.908C529.854 111.321 530.653 110.874 531.68 110.566C532.721 110.243 533.946 110.082 535.354 110.082ZM535.354 112.348C534.489 112.348 533.763 112.414 533.176 112.546C532.589 112.663 532.142 112.847 531.834 113.096C531.526 113.331 531.372 113.639 531.372 114.02C531.372 114.387 531.526 114.695 531.834 114.944C532.142 115.193 532.589 115.384 533.176 115.516C533.763 115.633 534.489 115.692 535.354 115.692C536.219 115.692 536.945 115.633 537.532 115.516C538.133 115.384 538.581 115.193 538.874 114.944C539.182 114.695 539.336 114.387 539.336 114.02C539.336 113.639 539.182 113.331 538.874 113.096C538.581 112.847 538.133 112.663 537.532 112.546C536.945 112.414 536.219 112.348 535.354 112.348ZM557.032 98.158C558.088 98.158 559.019 98.3633 559.826 98.774C560.647 99.17 561.293 99.72 561.762 100.424C562.246 101.113 562.488 101.913 562.488 102.822C562.488 103.731 562.246 104.538 561.762 105.242C561.293 105.931 560.647 106.474 559.826 106.87C559.019 107.266 558.088 107.464 557.032 107.464C556.005 107.464 555.081 107.266 554.26 106.87C553.439 106.474 552.786 105.931 552.302 105.242C551.833 104.538 551.598 103.731 551.598 102.822C551.598 101.913 551.833 101.106 552.302 100.402C552.786 99.698 553.439 99.148 554.26 98.752C555.081 98.356 556.005 98.158 557.032 98.158ZM557.054 100.534C556.555 100.534 556.108 100.629 555.712 100.82C555.316 100.996 555.001 101.253 554.766 101.59C554.546 101.927 554.436 102.338 554.436 102.822C554.436 103.306 554.546 103.724 554.766 104.076C555.001 104.413 555.309 104.67 555.69 104.846C556.086 105.022 556.541 105.11 557.054 105.11C557.553 105.11 557.993 105.022 558.374 104.846C558.77 104.67 559.078 104.413 559.298 104.076C559.533 103.724 559.65 103.306 559.65 102.822C559.65 102.338 559.533 101.927 559.298 101.59C559.078 101.253 558.77 100.996 558.374 100.82C557.978 100.629 557.538 100.534 557.054 100.534ZM565.304 97.586H568.23V107.772H565.304V97.586ZM554.656 108.608H568.23V114.174H557.56V116.66H554.678V112.062H565.326V110.852H554.656V108.608ZM554.678 115.45H568.736V117.738H554.678V115.45ZM571.528 100.644H581.274V102.954H571.528V100.644ZM576.434 103.878C577.3 103.878 578.062 104.083 578.722 104.494C579.397 104.905 579.925 105.477 580.306 106.21C580.702 106.929 580.9 107.765 580.9 108.718C580.9 109.671 580.702 110.515 580.306 111.248C579.925 111.967 579.397 112.531 578.722 112.942C578.062 113.353 577.3 113.558 576.434 113.558C575.569 113.558 574.799 113.353 574.124 112.942C573.45 112.531 572.922 111.967 572.54 111.248C572.159 110.515 571.968 109.671 571.968 108.718C571.968 107.765 572.159 106.929 572.54 106.21C572.922 105.477 573.45 104.905 574.124 104.494C574.814 104.083 575.584 103.878 576.434 103.878ZM576.434 106.298C576.082 106.298 575.76 106.393 575.466 106.584C575.173 106.775 574.946 107.053 574.784 107.42C574.623 107.772 574.542 108.205 574.542 108.718C574.542 109.231 574.623 109.671 574.784 110.038C574.946 110.405 575.173 110.683 575.466 110.874C575.76 111.05 576.082 111.138 576.434 111.138C576.801 111.138 577.124 111.05 577.402 110.874C577.681 110.683 577.901 110.405 578.062 110.038C578.224 109.671 578.304 109.231 578.304 108.718C578.304 108.205 578.224 107.772 578.062 107.42C577.901 107.053 577.681 106.775 577.402 106.584C577.124 106.393 576.801 106.298 576.434 106.298ZM586.268 97.564H589.04V117.936H586.268V97.564ZM583.826 105.858H587.17V108.212H583.826V105.858ZM581.978 97.938H584.706V117.078H581.978V97.938ZM575.004 98.114H577.886V102.096H575.004V98.114ZM597.245 98.972C598.286 98.972 599.203 99.2727 599.995 99.874C600.801 100.461 601.432 101.304 601.887 102.404C602.356 103.489 602.591 104.773 602.591 106.254C602.591 107.75 602.356 109.048 601.887 110.148C601.432 111.233 600.801 112.077 599.995 112.678C599.203 113.265 598.286 113.558 597.245 113.558C596.203 113.558 595.279 113.265 594.473 112.678C593.666 112.077 593.028 111.233 592.559 110.148C592.104 109.048 591.877 107.75 591.877 106.254C591.877 104.773 592.104 103.489 592.559 102.404C593.028 101.304 593.666 100.461 594.473 99.874C595.279 99.2727 596.203 98.972 597.245 98.972ZM597.245 101.634C596.746 101.634 596.299 101.81 595.903 102.162C595.521 102.514 595.221 103.035 595.001 103.724C594.795 104.399 594.693 105.242 594.693 106.254C594.693 107.251 594.795 108.102 595.001 108.806C595.221 109.495 595.521 110.016 595.903 110.368C596.299 110.72 596.746 110.896 597.245 110.896C597.743 110.896 598.183 110.72 598.565 110.368C598.946 110.016 599.239 109.495 599.445 108.806C599.665 108.102 599.775 107.251 599.775 106.254C599.775 105.242 599.665 104.399 599.445 103.724C599.239 103.035 598.946 102.514 598.565 102.162C598.183 101.81 597.743 101.634 597.245 101.634ZM606.947 102.316H610.533V104.714H606.947V102.316ZM606.947 108.278H610.533V110.676H606.947V108.278ZM604.791 97.586H607.739V117.958H604.791V97.586ZM630.209 97.586H633.135V109.466H630.209V97.586ZM632.343 102.184H635.841V104.604H632.343V102.184ZM617.691 98.752H620.595V101.326H624.599V98.752H627.481V108.454H617.691V98.752ZM620.595 103.592V106.166H624.599V103.592H620.595ZM619.913 110.368H633.267V112.656H622.817V117.034H619.913V110.368ZM619.913 115.384H633.663V117.716H619.913V115.384ZM652.559 105.264H656.145V107.684H652.559V105.264ZM650.359 97.542H653.307V117.914H650.359V97.542ZM637.973 99.5H640.877V112.172H637.973V99.5ZM637.973 110.522H639.711C641.163 110.522 642.674 110.463 644.243 110.346C645.812 110.229 647.418 110.009 649.061 109.686L649.369 112.062C647.668 112.414 646.01 112.656 644.397 112.788C642.784 112.905 641.222 112.964 639.711 112.964H637.973V110.522ZM661.643 107.926H664.569V113.624H661.643V107.926ZM669.035 107.926H671.961V113.624H669.035V107.926ZM657.595 113.206H676.053V115.582H657.595V113.206ZM666.791 98.576C668.258 98.576 669.563 98.8033 670.707 99.258C671.866 99.7127 672.768 100.351 673.413 101.172C674.073 101.979 674.403 102.939 674.403 104.054C674.403 105.154 674.073 106.115 673.413 106.936C672.768 107.743 671.866 108.373 670.707 108.828C669.563 109.283 668.258 109.51 666.791 109.51C665.339 109.51 664.034 109.283 662.875 108.828C661.731 108.373 660.829 107.743 660.169 106.936C659.509 106.115 659.179 105.154 659.179 104.054C659.179 102.939 659.509 101.979 660.169 101.172C660.829 100.351 661.731 99.7127 662.875 99.258C664.034 98.8033 665.339 98.576 666.791 98.576ZM666.791 100.842C665.853 100.842 665.024 100.974 664.305 101.238C663.601 101.487 663.051 101.847 662.655 102.316C662.259 102.785 662.061 103.365 662.061 104.054C662.061 104.714 662.259 105.286 662.655 105.77C663.051 106.239 663.601 106.606 664.305 106.87C665.024 107.119 665.853 107.244 666.791 107.244C667.745 107.244 668.573 107.119 669.277 106.87C669.996 106.606 670.546 106.239 670.927 105.77C671.323 105.286 671.521 104.714 671.521 104.054C671.521 103.365 671.323 102.785 670.927 102.316C670.546 101.847 669.996 101.487 669.277 101.238C668.573 100.974 667.745 100.842 666.791 100.842ZM681.119 111.203V110.937C681.124 110.026 681.205 109.299 681.361 108.758C681.523 108.216 681.757 107.779 682.064 107.445C682.372 107.112 682.742 106.81 683.174 106.539C683.497 106.331 683.786 106.115 684.041 105.891C684.296 105.667 684.499 105.419 684.65 105.148C684.801 104.872 684.877 104.565 684.877 104.227C684.877 103.867 684.791 103.552 684.619 103.281C684.447 103.01 684.215 102.802 683.924 102.656C683.637 102.51 683.32 102.437 682.971 102.437C682.632 102.437 682.312 102.513 682.01 102.664C681.708 102.81 681.46 103.029 681.268 103.32C681.075 103.607 680.971 103.964 680.955 104.391H677.768C677.794 103.349 678.044 102.49 678.518 101.812C678.992 101.13 679.619 100.622 680.4 100.289C681.182 99.9505 682.044 99.7812 682.986 99.7812C684.023 99.7812 684.939 99.9531 685.736 100.297C686.533 100.635 687.158 101.128 687.611 101.773C688.064 102.419 688.291 103.198 688.291 104.109C688.291 104.719 688.189 105.26 687.986 105.734C687.788 106.203 687.51 106.62 687.15 106.984C686.791 107.344 686.367 107.669 685.877 107.961C685.465 108.206 685.127 108.461 684.861 108.727C684.601 108.992 684.406 109.299 684.275 109.648C684.15 109.997 684.085 110.427 684.08 110.937V111.203H681.119ZM682.666 116.203C682.145 116.203 681.7 116.021 681.33 115.656C680.965 115.286 680.786 114.844 680.791 114.328C680.786 113.818 680.965 113.38 681.33 113.016C681.7 112.651 682.145 112.469 682.666 112.469C683.161 112.469 683.596 112.651 683.971 113.016C684.346 113.38 684.536 113.818 684.541 114.328C684.536 114.672 684.445 114.987 684.268 115.273C684.096 115.555 683.869 115.781 683.588 115.953C683.307 116.12 682.999 116.203 682.666 116.203ZM692.775 100V106.078H690.4V100H692.775ZM696.814 100V106.078H694.439V100H696.814Z" fill="#2E3C23"/>
<path d="M501.438 225V211.909H503.413V223.3H509.345V225H501.438ZM515.038 211.518H516.262V214.434C516.262 215.334 516.148 216.216 515.92 217.08C515.704 217.944 515.392 218.754 514.984 219.51C514.576 220.266 514.096 220.938 513.544 221.526C512.992 222.114 512.392 222.582 511.744 222.93L510.826 221.724C511.426 221.424 511.978 221.022 512.482 220.518C512.998 220.002 513.448 219.414 513.832 218.754C514.216 218.094 514.51 217.398 514.714 216.666C514.93 215.922 515.038 215.178 515.038 214.434V211.518ZM515.308 211.518H516.514V214.434C516.514 215.154 516.616 215.868 516.82 216.576C517.036 217.284 517.336 217.95 517.72 218.574C518.104 219.198 518.542 219.756 519.034 220.248C519.538 220.74 520.078 221.13 520.654 221.418L519.736 222.606C519.1 222.282 518.512 221.838 517.972 221.274C517.444 220.71 516.976 220.068 516.568 219.348C516.172 218.616 515.86 217.836 515.632 217.008C515.416 216.168 515.308 215.31 515.308 214.434V211.518ZM522.076 210.114H523.57V226.404H522.076V210.114ZM523.228 216.702H526.234V217.98H523.228V216.702ZM544.784 210.114H546.224V226.404H544.784V210.114ZM542.192 216.558H545.324V217.8H542.192V216.558ZM541.166 210.456H542.588V225.576H541.166V210.456ZM532.958 212.004H539.168V222.03H532.958V212.004ZM537.764 213.192H534.362V220.842H537.764V213.192ZM560.785 210.114H562.261V226.404H560.785V210.114ZM549.967 211.716H551.443V221.796H549.967V211.716ZM549.967 220.914H551.299C552.547 220.914 553.813 220.86 555.097 220.752C556.393 220.632 557.725 220.434 559.093 220.158L559.291 221.418C557.875 221.718 556.513 221.928 555.205 222.048C553.897 222.156 552.595 222.21 551.299 222.21H549.967V220.914ZM577.398 210.114H578.892V226.422H577.398V210.114ZM573.906 216.036H577.83V217.26H573.906V216.036ZM569.622 212.436H570.828V214.884C570.828 215.76 570.708 216.624 570.468 217.476C570.24 218.316 569.916 219.108 569.496 219.852C569.088 220.596 568.602 221.256 568.038 221.832C567.486 222.408 566.892 222.864 566.256 223.2L565.356 222.012C565.944 221.724 566.496 221.328 567.012 220.824C567.528 220.32 567.978 219.75 568.362 219.114C568.758 218.466 569.064 217.782 569.28 217.062C569.508 216.33 569.622 215.604 569.622 214.884V212.436ZM569.946 212.436H571.134V214.884C571.134 215.556 571.242 216.24 571.458 216.936C571.674 217.62 571.974 218.268 572.358 218.88C572.754 219.492 573.21 220.044 573.726 220.536C574.242 221.016 574.794 221.394 575.382 221.67L574.5 222.858C573.852 222.534 573.252 222.096 572.7 221.544C572.148 220.992 571.662 220.362 571.242 219.654C570.834 218.934 570.516 218.166 570.288 217.35C570.06 216.534 569.946 215.712 569.946 214.884V212.436ZM565.968 211.788H574.806V213.012H565.968V211.788ZM593.77 211.176H595.336C595.336 212.544 595.018 213.78 594.382 214.884C593.758 215.988 592.87 216.924 591.718 217.692C590.566 218.46 589.192 219.06 587.596 219.492L587.002 218.304C588.418 217.932 589.63 217.434 590.638 216.81C591.646 216.174 592.42 215.436 592.96 214.596C593.5 213.744 593.77 212.82 593.77 211.824V211.176ZM587.866 211.176H594.634V212.364H587.866V211.176ZM598.666 210.132H600.16V219.312H598.666V210.132ZM589.648 220.104H600.16V226.17H589.648V220.104ZM598.702 221.292H591.106V224.964H598.702V221.292ZM615.29 218.455C615.29 219.852 615.034 221.054 614.523 222.06C614.012 223.061 613.311 223.832 612.42 224.374C611.534 224.911 610.526 225.179 609.397 225.179C608.263 225.179 607.251 224.911 606.36 224.374C605.474 223.832 604.775 223.059 604.264 222.053C603.752 221.048 603.497 219.848 603.497 218.455C603.497 217.057 603.752 215.857 604.264 214.856C604.775 213.85 605.474 213.079 606.36 212.542C607.251 212.001 608.263 211.73 609.397 211.73C610.526 211.73 611.534 212.001 612.42 212.542C613.311 213.079 614.012 213.85 614.523 214.856C615.034 215.857 615.29 217.057 615.29 218.455ZM613.334 218.455C613.334 217.389 613.162 216.492 612.816 215.763C612.475 215.031 612.007 214.477 611.41 214.102C610.818 213.722 610.147 213.533 609.397 213.533C608.642 213.533 607.969 213.722 607.377 214.102C606.784 214.477 606.316 215.031 605.971 215.763C605.63 216.492 605.459 217.389 605.459 218.455C605.459 219.52 605.63 220.419 605.971 221.152C606.316 221.881 606.784 222.435 607.377 222.814C607.969 223.189 608.642 223.376 609.397 223.376C610.147 223.376 610.818 223.189 611.41 222.814C612.007 222.435 612.475 221.881 612.816 221.152C613.162 220.419 613.334 219.52 613.334 218.455ZM629.124 218.455C629.124 219.852 628.868 221.054 628.357 222.06C627.846 223.061 627.145 223.832 626.254 224.374C625.368 224.911 624.36 225.179 623.231 225.179C622.097 225.179 621.085 224.911 620.194 224.374C619.308 223.832 618.609 223.059 618.098 222.053C617.586 221.048 617.331 219.848 617.331 218.455C617.331 217.057 617.586 215.857 618.098 214.856C618.609 213.85 619.308 213.079 620.194 212.542C621.085 212.001 622.097 211.73 623.231 211.73C624.36 211.73 625.368 212.001 626.254 212.542C627.145 213.079 627.846 213.85 628.357 214.856C628.868 215.857 629.124 217.057 629.124 218.455ZM627.168 218.455C627.168 217.389 626.996 216.492 626.65 215.763C626.309 215.031 625.841 214.477 625.244 214.102C624.652 213.722 623.981 213.533 623.231 213.533C622.476 213.533 621.803 213.722 621.211 214.102C620.618 214.477 620.15 215.031 619.805 215.763C619.464 216.492 619.293 217.389 619.293 218.455C619.293 219.52 619.464 220.419 619.805 221.152C620.15 221.881 620.618 222.435 621.211 222.814C621.803 223.189 622.476 223.376 623.231 223.376C623.981 223.376 624.652 223.189 625.244 222.814C625.841 222.435 626.309 221.881 626.65 221.152C626.996 220.419 627.168 219.52 627.168 218.455Z" fill="#2E3C23"/>
<path d="M661.877 239.889C661.12 239.222 660.396 238.516 659.711 237.776C659.424 237.465 659.144 237.148 658.871 236.825C654.584 231.761 652 225.208 652 218.049C652 202.006 664.984 189 681 189C697.016 189 710 202.006 710 218.049C710 225.208 707.415 231.761 703.129 236.824C702.856 237.148 702.576 237.465 702.289 237.775C701.604 238.516 700.88 239.221 700.123 239.888H661.877V239.889Z" fill="#DCDCE0"/>
<path d="M700.123 239.888C695.018 244.377 688.326 247.099 681 247.099C673.674 247.099 666.982 244.378 661.877 239.888C666.171 233.061 673.137 228.621 681 228.621C688.863 228.621 695.829 233.061 700.123 239.888Z" fill="#AAAAB2"/>
<path d="M681 223.765C687.469 223.765 692.713 218.513 692.713 212.033C692.713 205.553 687.469 200.3 681 200.3C674.531 200.3 669.287 205.553 669.287 212.033C669.287 218.513 674.531 223.765 681 223.765Z" fill="#AAAAB2"/>
<g filter="url(#filter2_d_216_27)">
<rect x="4" y="4" width="358" height="266" rx="20" fill="white"/>
</g>
<path d="M32.2109 78V76.3125C32.2109 75.8333 32.3047 75.3437 32.4922 74.8437C32.6797 74.3437 32.9271 73.8724 33.2344 73.4297C33.5417 72.987 33.875 72.6172 34.2344 72.3203L35.7031 73.1875C35.4115 73.6458 35.1719 74.125 34.9844 74.625C34.8021 75.125 34.7109 75.6823 34.7109 76.2969V78H32.2109ZM36.1562 78V76.3125C36.1562 75.8333 36.25 75.3437 36.4375 74.8437C36.625 74.3437 36.8724 73.8724 37.1797 73.4297C37.487 72.987 37.8203 72.6172 38.1797 72.3203L39.6484 73.1875C39.3568 73.6458 39.1172 74.125 38.9297 74.625C38.7474 75.125 38.6563 75.6823 38.6563 76.2969V78H36.1562ZM43.4493 71.686H56.3193V74.018H43.4493V71.686ZM41.1833 79.584H59.6413V81.916H41.1833V79.584ZM54.5813 71.686H57.4853V73.446C57.4853 74.414 57.4559 75.4627 57.3973 76.592C57.3533 77.7213 57.1699 79.0193 56.8473 80.486L53.9653 80.222C54.2733 78.7847 54.4493 77.538 54.4933 76.482C54.5519 75.4113 54.5813 74.3993 54.5813 73.446V71.686ZM43.4933 88.252H58.0573V90.584H43.4933V88.252ZM43.4933 83.654H46.3973V88.472H43.4933V83.654ZM61.4215 86.338H79.8795V88.714H61.4215V86.338ZM69.1655 82.466H72.0695V87.284H69.1655V82.466ZM63.5115 71.884H77.7895V78.682H66.4375V82.092H63.5335V76.394H74.8855V74.216H63.5115V71.884ZM63.5335 80.948H78.2515V83.28H63.5335V80.948ZM89.5138 75.954H93.6278V78.264H89.5138V75.954ZM89.4038 81.036H93.5618V83.368H89.4038V81.036ZM96.3998 70.564H99.1938V90.936H96.3998V70.564ZM92.2198 71.004H94.9478V90.034H92.2198V71.004ZM87.6218 72.962H90.4158C90.4158 74.898 90.1885 76.702 89.7338 78.374C89.2938 80.0313 88.5311 81.5567 87.4458 82.95C86.3751 84.3433 84.8938 85.5973 83.0018 86.712L81.3518 84.666C82.8918 83.742 84.1165 82.7373 85.0258 81.652C85.9498 80.552 86.6098 79.342 87.0058 78.022C87.4165 76.6873 87.6218 75.1987 87.6218 73.556V72.962ZM82.5178 72.962H88.5898V75.316H82.5178V72.962ZM117.034 73.226H120.532V75.624H117.034V73.226ZM117.034 77.648H120.532V80.024H117.034V77.648ZM114.988 70.586H117.914V82.598H114.988V70.586ZM104.318 83.434H117.914V90.958H114.988V85.744H104.318V83.434ZM107.552 71.686C108.608 71.686 109.554 71.906 110.39 72.346C111.226 72.7713 111.886 73.358 112.37 74.106C112.854 74.8393 113.096 75.69 113.096 76.658C113.096 77.6407 112.854 78.506 112.37 79.254C111.886 80.002 111.226 80.5887 110.39 81.014C109.554 81.4393 108.608 81.652 107.552 81.652C106.511 81.652 105.572 81.4393 104.736 81.014C103.9 80.5887 103.24 80.002 102.756 79.254C102.272 78.506 102.03 77.6407 102.03 76.658C102.03 75.69 102.272 74.8393 102.756 74.106C103.24 73.358 103.9 72.7713 104.736 72.346C105.572 71.906 106.511 71.686 107.552 71.686ZM107.552 74.15C107.053 74.15 106.599 74.2527 106.188 74.458C105.777 74.6487 105.455 74.9347 105.22 75.316C105 75.6827 104.89 76.13 104.89 76.658C104.89 77.2007 105 77.6627 105.22 78.044C105.455 78.4107 105.777 78.6967 106.188 78.902C106.599 79.0927 107.053 79.188 107.552 79.188C108.08 79.188 108.542 79.0927 108.938 78.902C109.334 78.6967 109.649 78.4107 109.884 78.044C110.119 77.6627 110.236 77.2007 110.236 76.658C110.236 76.13 110.119 75.6827 109.884 75.316C109.649 74.9347 109.334 74.6487 108.938 74.458C108.542 74.2527 108.08 74.15 107.552 74.15ZM132.41 76.944H137.778V79.298H132.41V76.944ZM126.866 72.126H129.22V75.096C129.22 76.372 129.11 77.6113 128.89 78.814C128.67 80.0167 128.333 81.1387 127.878 82.18C127.424 83.2213 126.844 84.138 126.14 84.93C125.451 85.722 124.63 86.36 123.676 86.844L121.85 84.512C122.716 84.1013 123.456 83.566 124.072 82.906C124.703 82.246 125.224 81.498 125.634 80.662C126.06 79.8113 126.368 78.9167 126.558 77.978C126.764 77.0247 126.866 76.064 126.866 75.096V72.126ZM127.46 72.126H129.792V75.096C129.792 76.0493 129.888 76.9953 130.078 77.934C130.269 78.858 130.555 79.7233 130.936 80.53C131.332 81.3367 131.838 82.0553 132.454 82.686C133.07 83.302 133.804 83.8007 134.654 84.182L132.894 86.514C131.941 86.0447 131.12 85.4287 130.43 84.666C129.741 83.8887 129.176 83.0013 128.736 82.004C128.311 81.0067 127.988 79.9213 127.768 78.748C127.563 77.5747 127.46 76.3573 127.46 75.096V72.126ZM136.304 70.542H139.23V90.98H136.304V70.542ZM155.377 70.542H158.325V90.914H155.377V70.542ZM157.577 78.352H161.163V80.75H157.577V78.352ZM150.031 72.654H152.913C152.913 74.6927 152.619 76.6213 152.033 78.44C151.461 80.2587 150.507 81.9307 149.173 83.456C147.853 84.9667 146.063 86.2867 143.805 87.416L142.155 85.194C143.944 84.27 145.418 83.2287 146.577 82.07C147.75 80.9113 148.615 79.5987 149.173 78.132C149.745 76.6507 150.031 75.0007 150.031 73.182V72.654ZM143.277 72.654H151.549V75.008H143.277V72.654ZM182.401 70.564H185.195V90.936H182.401V70.564ZM175.691 77.538H179.079V79.914H175.691V77.538ZM178.287 70.894H181.015V90.012H178.287V70.894ZM171.313 73.886H173.513V75.976C173.513 77.12 173.425 78.2493 173.249 79.364C173.087 80.4787 172.831 81.5347 172.479 82.532C172.127 83.5147 171.665 84.402 171.093 85.194C170.521 85.986 169.831 86.6387 169.025 87.152L167.287 84.996C168.284 84.3653 169.076 83.5733 169.663 82.62C170.249 81.652 170.667 80.596 170.917 79.452C171.181 78.2933 171.313 77.1347 171.313 75.976V73.886ZM171.973 73.886H174.151V75.976C174.151 77.1053 174.275 78.22 174.525 79.32C174.774 80.42 175.185 81.4247 175.757 82.334C176.329 83.2287 177.106 83.962 178.089 84.534L176.395 86.646C175.309 86.0007 174.444 85.128 173.799 84.028C173.153 82.928 172.684 81.6887 172.391 80.31C172.112 78.9167 171.973 77.472 171.973 75.976V73.886ZM168.035 72.61H177.121V74.964H168.035V72.61ZM202.639 70.564H205.433V90.936H202.639V70.564ZM199.933 78.418H203.321V80.772H199.933V78.418ZM198.085 70.916H200.791V89.99H198.085V70.916ZM188.515 83.94H189.923C190.774 83.94 191.58 83.9327 192.343 83.918C193.106 83.8887 193.861 83.8373 194.609 83.764C195.372 83.676 196.149 83.566 196.941 83.434L197.183 85.81C196.362 85.9567 195.562 86.074 194.785 86.162C194.008 86.25 193.223 86.3087 192.431 86.338C191.639 86.3527 190.803 86.36 189.923 86.36H188.515V83.94ZM188.515 72.94H196.017V75.294H191.397V85.106H188.515V72.94ZM208.181 86.338H226.639V88.714H208.181V86.338ZM215.925 82.466H218.829V87.284H215.925V82.466ZM210.271 71.884H224.549V78.682H213.197V82.092H210.293V76.394H221.645V74.216H210.271V71.884ZM210.293 80.948H225.011V83.28H210.293V80.948ZM36.434 99.654H38.832V100.93C38.832 102.221 38.6193 103.438 38.194 104.582C37.7833 105.726 37.1527 106.731 36.302 107.596C35.466 108.447 34.4027 109.085 33.112 109.51L31.594 107.244C32.7233 106.863 33.64 106.342 34.344 105.682C35.0627 105.022 35.5907 104.281 35.928 103.46C36.2653 102.624 36.434 101.781 36.434 100.93V99.654ZM37.006 99.654H39.382V100.93C39.382 101.722 39.5433 102.514 39.866 103.306C40.1887 104.083 40.6947 104.787 41.384 105.418C42.088 106.034 42.9827 106.518 44.068 106.87L42.594 109.158C41.318 108.747 40.2693 108.124 39.448 107.288C38.6267 106.452 38.0107 105.491 37.6 104.406C37.204 103.306 37.006 102.147 37.006 100.93V99.654ZM32.364 98.774H43.386V101.106H32.364V98.774ZM44.992 97.586H47.918V109.84H44.992V97.586ZM47.126 102.492H50.624V104.912H47.126V102.492ZM34.322 110.742H47.918V117.958H44.992V113.074H34.322V110.742ZM56.8703 98.642H59.2903V100.446C59.2903 101.81 59.0776 103.093 58.6523 104.296C58.2416 105.499 57.6109 106.547 56.7603 107.442C55.9096 108.337 54.8169 109.011 53.4823 109.466L51.9423 107.112C53.1156 106.745 54.0616 106.217 54.7803 105.528C55.4989 104.839 56.0269 104.054 56.3643 103.174C56.7016 102.294 56.8703 101.385 56.8703 100.446V98.642ZM57.4643 98.642H59.8403V100.314C59.8403 101.209 59.9943 102.074 60.3023 102.91C60.6103 103.731 61.1016 104.465 61.7763 105.11C62.4509 105.741 63.3236 106.232 64.3943 106.584L62.8763 108.872C61.6296 108.432 60.6029 107.794 59.7963 106.958C59.0043 106.122 58.4176 105.139 58.0363 104.01C57.6549 102.866 57.4643 101.634 57.4643 100.314V98.642ZM66.2423 97.586H69.1903V109.51H66.2423V97.586ZM62.2823 110.038C64.4383 110.038 66.1396 110.39 67.3863 111.094C68.6329 111.783 69.2563 112.744 69.2563 113.976C69.2563 115.237 68.6329 116.213 67.3863 116.902C66.1396 117.606 64.4383 117.958 62.2823 117.958C60.1263 117.958 58.4249 117.606 57.1783 116.902C55.9316 116.213 55.3083 115.237 55.3083 113.976C55.3083 112.744 55.9316 111.783 57.1783 111.094C58.4249 110.39 60.1263 110.038 62.2823 110.038ZM62.2823 112.304C61.4023 112.304 60.6616 112.363 60.0603 112.48C59.4589 112.597 58.9969 112.788 58.6743 113.052C58.3663 113.301 58.2123 113.609 58.2123 113.976C58.2123 114.357 58.3663 114.68 58.6743 114.944C58.9969 115.193 59.4589 115.384 60.0603 115.516C60.6616 115.633 61.4023 115.692 62.2823 115.692C63.1623 115.692 63.9029 115.633 64.5043 115.516C65.1056 115.384 65.5603 115.193 65.8683 114.944C66.1763 114.68 66.3303 114.357 66.3303 113.976C66.3303 113.609 66.1763 113.301 65.8683 113.052C65.5603 112.788 65.1056 112.597 64.5043 112.48C63.9029 112.363 63.1623 112.304 62.2823 112.304ZM62.5243 101.282H66.6823V103.658H62.5243V101.282ZM74.1386 103.812H84.1266V106.122H74.1386V103.812ZM77.6366 105.308H80.5846V109.202H77.6366V105.308ZM74.1386 98.818H84.0166V101.128H77.0646V104.78H74.1386V98.818ZM86.4146 97.564H89.3406V112.898H86.4146V97.564ZM75.5466 115.252H89.8906V117.606H75.5466V115.252ZM75.5466 111.82H78.4946V116.154H75.5466V111.82ZM72.8186 110.588L72.4666 108.278C73.7572 108.278 75.1212 108.271 76.5586 108.256C77.9959 108.227 79.4479 108.183 80.9146 108.124C82.3959 108.051 83.8186 107.948 85.1826 107.816L85.4026 109.906C83.9799 110.111 82.5352 110.265 81.0686 110.368C79.6166 110.456 78.1939 110.515 76.8006 110.544C75.4072 110.573 74.0799 110.588 72.8186 110.588ZM106.719 97.564H109.667V112.458H106.719V97.564ZM103.221 103.504H107.137V105.88H103.221V103.504ZM100.317 99.104H103.375C103.375 100.937 103.008 102.595 102.275 104.076C101.542 105.557 100.478 106.841 99.0848 107.926C97.7062 109.011 96.0268 109.869 94.0468 110.5L92.8368 108.168C94.4062 107.669 95.7482 107.039 96.8628 106.276C97.9775 105.499 98.8282 104.619 99.4148 103.636C100.016 102.639 100.317 101.568 100.317 100.424V99.104ZM93.8928 99.104H102.165V101.436H93.8928V99.104ZM96.3128 115.252H110.173V117.606H96.3128V115.252ZM96.3128 110.984H99.2388V116.616H96.3128V110.984ZM117.761 100.798H120.093V103.086C120.093 104.259 119.968 105.411 119.719 106.54C119.484 107.669 119.125 108.733 118.641 109.73C118.172 110.713 117.578 111.585 116.859 112.348C116.14 113.096 115.304 113.69 114.351 114.13L112.679 111.82C113.53 111.424 114.27 110.911 114.901 110.28C115.546 109.649 116.074 108.945 116.485 108.168C116.91 107.376 117.226 106.547 117.431 105.682C117.651 104.802 117.761 103.937 117.761 103.086V100.798ZM118.399 100.798H120.709V103.086C120.709 103.893 120.812 104.714 121.017 105.55C121.237 106.371 121.552 107.156 121.963 107.904C122.374 108.637 122.894 109.297 123.525 109.884C124.156 110.471 124.904 110.94 125.769 111.292L124.163 113.624C123.195 113.199 122.352 112.627 121.633 111.908C120.914 111.189 120.313 110.361 119.829 109.422C119.345 108.483 118.986 107.479 118.751 106.408C118.516 105.323 118.399 104.215 118.399 103.086V100.798ZM113.493 99.522H124.933V101.942H113.493V99.522ZM126.825 97.586H129.751V117.958H126.825V97.586ZM142.651 99.104H145.049V100.336C145.049 101.539 144.837 102.675 144.411 103.746C144.001 104.817 143.363 105.748 142.497 106.54C141.632 107.332 140.532 107.919 139.197 108.3L137.789 105.99C138.933 105.667 139.865 105.213 140.583 104.626C141.302 104.039 141.823 103.372 142.145 102.624C142.483 101.861 142.651 101.099 142.651 100.336V99.104ZM143.267 99.104H145.621V100.336C145.621 101.025 145.783 101.715 146.105 102.404C146.443 103.093 146.956 103.717 147.645 104.274C148.349 104.831 149.244 105.264 150.329 105.572L148.987 107.838C147.697 107.486 146.626 106.936 145.775 106.188C144.925 105.44 144.294 104.56 143.883 103.548C143.473 102.536 143.267 101.465 143.267 100.336V99.104ZM138.603 98.488H149.603V100.82H138.603V98.488ZM151.275 97.586H154.201V107.992H151.275V97.586ZM153.035 101.568H156.885V103.944H153.035V101.568ZM140.759 108.784H154.201V114.24H143.685V116.814H140.781V112.172H151.319V110.984H140.759V108.784ZM140.781 115.538H154.795V117.76H140.781V115.538ZM163.515 113.206H181.973V115.582H163.515V113.206ZM171.259 108.718H174.163V113.778H171.259V108.718ZM165.451 99.082H179.949V109.092H165.451V99.082ZM177.067 101.392H168.333V106.76H177.067V101.392ZM183.754 113.272H202.212V115.67H183.754V113.272ZM185.844 98.928H200.122V105.748H188.77V109.158H185.866V103.46H197.218V101.282H185.844V98.928ZM185.866 108.014H200.584V110.346H185.866V108.014ZM209.954 98.972H212.902C212.902 100.688 212.638 102.228 212.11 103.592C211.582 104.941 210.768 106.122 209.668 107.134C208.568 108.146 207.145 109.019 205.4 109.752L203.97 107.618C205.393 107.046 206.544 106.393 207.424 105.66C208.304 104.927 208.942 104.091 209.338 103.152C209.749 102.213 209.954 101.165 209.954 100.006V98.972ZM205.048 98.972H211.12V101.304H205.048V98.972ZM218.556 97.564H221.35V109.136H218.556V97.564ZM210.548 102.866H214.86V105.198H210.548V102.866ZM214.42 97.96H217.148V108.894H214.42V97.96ZM208.678 109.774H210.878V110.676C210.878 111.717 210.717 112.707 210.394 113.646C210.086 114.585 209.595 115.413 208.92 116.132C208.245 116.851 207.373 117.401 206.302 117.782L204.894 115.648C205.789 115.34 206.515 114.929 207.072 114.416C207.629 113.888 208.033 113.301 208.282 112.656C208.546 112.011 208.678 111.351 208.678 110.676V109.774ZM209.426 109.774H211.516V110.676C211.516 111.351 211.633 112.018 211.868 112.678C212.103 113.323 212.477 113.925 212.99 114.482C213.503 115.025 214.171 115.479 214.992 115.846L213.804 117.98C212.733 117.569 211.875 116.983 211.23 116.22C210.585 115.457 210.123 114.599 209.844 113.646C209.565 112.678 209.426 111.688 209.426 110.676V109.774ZM216.092 109.774H218.182V110.676C218.182 111.615 218.035 112.568 217.742 113.536C217.449 114.504 216.987 115.377 216.356 116.154C215.725 116.931 214.875 117.54 213.804 117.98L212.594 115.846C213.43 115.45 214.105 114.966 214.618 114.394C215.131 113.822 215.505 113.213 215.74 112.568C215.975 111.908 216.092 111.277 216.092 110.676V109.774ZM216.774 109.774H218.974V110.676C218.974 111.395 219.099 112.077 219.348 112.722C219.612 113.367 220.023 113.947 220.58 114.46C221.137 114.973 221.863 115.369 222.758 115.648L221.328 117.782C220.257 117.415 219.385 116.88 218.71 116.176C218.05 115.472 217.559 114.651 217.236 113.712C216.928 112.759 216.774 111.747 216.774 110.676V109.774ZM229.796 98.972C230.808 98.972 231.71 99.2727 232.502 99.874C233.309 100.461 233.932 101.304 234.372 102.404C234.827 103.489 235.054 104.773 235.054 106.254C235.054 107.75 234.827 109.048 234.372 110.148C233.932 111.233 233.309 112.077 232.502 112.678C231.71 113.265 230.808 113.558 229.796 113.558C228.784 113.558 227.882 113.265 227.09 112.678C226.298 112.077 225.675 111.233 225.22 110.148C224.765 109.048 224.538 107.75 224.538 106.254C224.538 104.773 224.765 103.489 225.22 102.404C225.675 101.304 226.298 100.461 227.09 99.874C227.882 99.2727 228.784 98.972 229.796 98.972ZM229.796 101.634C229.312 101.634 228.879 101.81 228.498 102.162C228.131 102.514 227.845 103.035 227.64 103.724C227.435 104.399 227.332 105.242 227.332 106.254C227.332 107.251 227.435 108.102 227.64 108.806C227.845 109.495 228.131 110.016 228.498 110.368C228.879 110.72 229.312 110.896 229.796 110.896C230.309 110.896 230.749 110.72 231.116 110.368C231.483 110.016 231.769 109.495 231.974 108.806C232.179 108.102 232.282 107.251 232.282 106.254C232.282 105.242 232.179 104.399 231.974 103.724C231.769 103.035 231.483 102.514 231.116 102.162C230.749 101.81 230.309 101.634 229.796 101.634ZM238.398 97.542H241.324V117.98H238.398V97.542ZM234.196 104.912H239.63V107.244H234.196V104.912ZM248.516 107.926H251.442V113.624H248.516V107.926ZM255.908 107.926H258.834V113.624H255.908V107.926ZM244.468 113.206H262.926V115.582H244.468V113.206ZM253.664 98.576C255.131 98.576 256.436 98.8033 257.58 99.258C258.739 99.7127 259.641 100.351 260.286 101.172C260.946 101.979 261.276 102.939 261.276 104.054C261.276 105.154 260.946 106.115 260.286 106.936C259.641 107.743 258.739 108.373 257.58 108.828C256.436 109.283 255.131 109.51 253.664 109.51C252.212 109.51 250.907 109.283 249.748 108.828C248.604 108.373 247.702 107.743 247.042 106.936C246.382 106.115 246.052 105.154 246.052 104.054C246.052 102.939 246.382 101.979 247.042 101.172C247.702 100.351 248.604 99.7127 249.748 99.258C250.907 98.8033 252.212 98.576 253.664 98.576ZM253.664 100.842C252.726 100.842 251.897 100.974 251.178 101.238C250.474 101.487 249.924 101.847 249.528 102.316C249.132 102.785 248.934 103.365 248.934 104.054C248.934 104.714 249.132 105.286 249.528 105.77C249.924 106.239 250.474 106.606 251.178 106.87C251.897 107.119 252.726 107.244 253.664 107.244C254.618 107.244 255.446 107.119 256.15 106.87C256.869 106.606 257.419 106.239 257.8 105.77C258.196 105.286 258.394 104.714 258.394 104.054C258.394 103.365 258.196 102.785 257.8 102.316C257.419 101.847 256.869 101.487 256.15 101.238C255.446 100.974 254.618 100.842 253.664 100.842ZM267.273 100V106.078H264.898V100H267.273ZM271.313 100V106.078H268.938V100H271.313Z" fill="#2E3C23"/>
<path d="M115.438 211.909H117.835L122.003 222.085H122.156L126.324 211.909H128.721V225H126.842V215.527H126.72L122.859 224.981H121.3L117.439 215.521H117.317V225H115.438V211.909ZM135.032 211.518H136.256V214.434C136.256 215.334 136.142 216.216 135.914 217.08C135.698 217.944 135.386 218.754 134.978 219.51C134.57 220.266 134.09 220.938 133.538 221.526C132.986 222.114 132.386 222.582 131.738 222.93L130.82 221.724C131.42 221.424 131.972 221.022 132.476 220.518C132.992 220.002 133.442 219.414 133.826 218.754C134.21 218.094 134.504 217.398 134.708 216.666C134.924 215.922 135.032 215.178 135.032 214.434V211.518ZM135.302 211.518H136.508V214.434C136.508 215.154 136.61 215.868 136.814 216.576C137.03 217.284 137.33 217.95 137.714 218.574C138.098 219.198 138.536 219.756 139.028 220.248C139.532 220.74 140.072 221.13 140.648 221.418L139.73 222.606C139.094 222.282 138.506 221.838 137.966 221.274C137.438 220.71 136.97 220.068 136.562 219.348C136.166 218.616 135.854 217.836 135.626 217.008C135.41 216.168 135.302 215.31 135.302 214.434V211.518ZM142.07 210.114H143.564V226.404H142.07V210.114ZM143.222 216.702H146.228V217.98H143.222V216.702ZM154.249 211.086H164.635V212.31H154.249V211.086ZM152.377 217.602H167.137V218.826H152.377V217.602ZM163.753 211.086H165.229V212.346C165.229 213.09 165.205 213.93 165.157 214.866C165.121 215.79 164.971 216.87 164.707 218.106L163.231 217.962C163.495 216.75 163.645 215.7 163.681 214.812C163.729 213.912 163.753 213.09 163.753 212.346V211.086ZM154.321 224.802H165.715V226.026H154.321V224.802ZM154.321 220.644H155.797V224.964H154.321V220.644ZM168.917 219.564H183.677V220.788H168.917V219.564ZM175.523 220.32H176.999V226.386H175.523V220.32ZM170.807 211.014H181.787V217.368H170.807V211.014ZM180.311 212.22H172.265V216.18H180.311V212.22ZM189.508 212.454H190.714V215.082C190.714 215.934 190.594 216.78 190.354 217.62C190.114 218.448 189.778 219.234 189.346 219.978C188.926 220.71 188.44 221.364 187.888 221.94C187.336 222.504 186.742 222.948 186.106 223.272L185.224 222.084C185.812 221.796 186.358 221.406 186.862 220.914C187.378 220.41 187.834 219.84 188.23 219.204C188.626 218.556 188.938 217.884 189.166 217.188C189.394 216.48 189.508 215.778 189.508 215.082V212.454ZM189.796 212.454H190.984V215.082C190.984 215.73 191.086 216.384 191.29 217.044C191.506 217.704 191.806 218.334 192.19 218.934C192.574 219.534 193.018 220.074 193.522 220.554C194.038 221.022 194.584 221.4 195.16 221.688L194.314 222.876C193.678 222.552 193.084 222.12 192.532 221.58C191.98 221.028 191.5 220.404 191.092 219.708C190.684 219.012 190.366 218.268 190.138 217.476C189.91 216.684 189.796 215.886 189.796 215.082V212.454ZM185.8 211.788H194.584V213.03H185.8V211.788ZM196.51 210.114H198.004V226.404H196.51V210.114ZM197.662 216.684H200.668V217.944H197.662V216.684ZM211.478 218.718H212.972V222.264H211.478V218.718ZM211.46 212.994H212.666V213.372C212.666 214.32 212.474 215.19 212.09 215.982C211.706 216.762 211.172 217.434 210.488 217.998C209.804 218.55 209.006 218.97 208.094 219.258L207.392 218.106C208.196 217.854 208.904 217.5 209.516 217.044C210.128 216.576 210.602 216.03 210.938 215.406C211.286 214.77 211.46 214.092 211.46 213.372V212.994ZM211.748 212.994H212.972V213.372C212.972 214.068 213.146 214.722 213.494 215.334C213.842 215.934 214.322 216.462 214.934 216.918C215.558 217.362 216.272 217.698 217.076 217.926L216.392 219.096C215.48 218.82 214.676 218.406 213.98 217.854C213.284 217.302 212.738 216.648 212.342 215.892C211.946 215.124 211.748 214.284 211.748 213.372V212.994ZM207.788 212.238H216.716V213.462H207.788V212.238ZM211.478 210.24H212.972V212.778H211.478V210.24ZM218.588 210.114H220.082V226.422H218.588V210.114ZM207.104 223.056L206.906 221.814C207.89 221.814 208.976 221.808 210.164 221.796C211.364 221.772 212.594 221.724 213.854 221.652C215.126 221.568 216.35 221.43 217.526 221.238L217.652 222.354C216.428 222.582 215.186 222.744 213.926 222.84C212.678 222.936 211.472 222.996 210.308 223.02C209.144 223.044 208.076 223.056 207.104 223.056ZM235.284 218.455C235.284 219.852 235.029 221.054 234.517 222.06C234.006 223.061 233.305 223.832 232.414 224.374C231.528 224.911 230.52 225.179 229.391 225.179C228.257 225.179 227.245 224.911 226.355 224.374C225.468 223.832 224.769 223.059 224.258 222.053C223.747 221.048 223.491 219.848 223.491 218.455C223.491 217.057 223.747 215.857 224.258 214.856C224.769 213.85 225.468 213.079 226.355 212.542C227.245 212.001 228.257 211.73 229.391 211.73C230.52 211.73 231.528 212.001 232.414 212.542C233.305 213.079 234.006 213.85 234.517 214.856C235.029 215.857 235.284 217.057 235.284 218.455ZM233.328 218.455C233.328 217.389 233.156 216.492 232.811 215.763C232.47 215.031 232.001 214.477 231.404 214.102C230.812 213.722 230.141 213.533 229.391 213.533C228.637 213.533 227.963 213.722 227.371 214.102C226.779 214.477 226.31 215.031 225.965 215.763C225.624 216.492 225.453 217.389 225.453 218.455C225.453 219.52 225.624 220.419 225.965 221.152C226.31 221.881 226.779 222.435 227.371 222.814C227.963 223.189 228.637 223.376 229.391 223.376C230.141 223.376 230.812 223.189 231.404 222.814C232.001 222.435 232.47 221.881 232.811 221.152C233.156 220.419 233.328 219.52 233.328 218.455ZM249.118 218.455C249.118 219.852 248.863 221.054 248.351 222.06C247.84 223.061 247.139 223.832 246.248 224.374C245.362 224.911 244.354 225.179 243.225 225.179C242.091 225.179 241.079 224.911 240.189 224.374C239.302 223.832 238.603 223.059 238.092 222.053C237.581 221.048 237.325 219.848 237.325 218.455C237.325 217.057 237.581 215.857 238.092 214.856C238.603 213.85 239.302 213.079 240.189 212.542C241.079 212.001 242.091 211.73 243.225 211.73C244.354 211.73 245.362 212.001 246.248 212.542C247.139 213.079 247.84 213.85 248.351 214.856C248.863 215.857 249.118 217.057 249.118 218.455ZM247.162 218.455C247.162 217.389 246.99 216.492 246.645 215.763C246.304 215.031 245.835 214.477 245.238 214.102C244.646 213.722 243.975 213.533 243.225 213.533C242.471 213.533 241.797 213.722 241.205 214.102C240.613 214.477 240.144 215.031 239.799 215.763C239.458 216.492 239.287 217.389 239.287 218.455C239.287 219.52 239.458 220.419 239.799 221.152C240.144 221.881 240.613 222.435 241.205 222.814C241.797 223.189 242.471 223.376 243.225 223.376C243.975 223.376 244.646 223.189 245.238 222.814C245.835 222.435 246.304 221.881 246.645 221.152C246.99 220.419 247.162 219.52 247.162 218.455Z" fill="#2E3C23"/>
<path d="M280.877 239.889C280.12 239.222 279.396 238.516 278.711 237.776C278.424 237.465 278.144 237.148 277.871 236.825C273.584 231.761 271 225.208 271 218.049C271 202.006 283.984 189 300 189C316.016 189 329 202.006 329 218.049C329 225.208 326.415 231.761 322.129 236.824C321.856 237.148 321.576 237.465 321.289 237.775C320.604 238.516 319.88 239.221 319.123 239.888H280.877V239.889Z" fill="#DCDCE0"/>
<path d="M319.123 239.888C314.018 244.377 307.326 247.099 300 247.099C292.674 247.099 285.982 244.378 280.877 239.888C285.171 233.061 292.137 228.621 300 228.621C307.863 228.621 314.829 233.061 319.123 239.888Z" fill="#AAAAB2"/>
<path d="M300 223.765C306.469 223.765 311.713 218.513 311.713 212.033C311.713 205.553 306.469 200.3 300 200.3C293.531 200.3 288.287 205.553 288.287 212.033C288.287 218.513 293.531 223.765 300 223.765Z" fill="#AAAAB2"/>
<defs>
<filter id="filter0_d_216_27" x="772" y="0" width="366" height="274" filterUnits="userSpaceOnUse" color-interpolation-filters="sRGB">
<feFlood flood-opacity="0" result="BackgroundImageFix"/>
<feColorMatrix in="SourceAlpha" type="matrix" values="0 0 0 0 0 0 0 0 0 0 0 0 0 0 0 0 0 0 127 0" result="hardAlpha"/>
<feOffset/>
<feGaussianBlur stdDeviation="2"/>
<feComposite in2="hardAlpha" operator="out"/>
<feColorMatrix type="matrix" values="0 0 0 0 0.503925 0 0 0 0 0.503925 0 0 0 0 0.503925 0 0 0 0.25 0"/>
<feBlend mode="normal" in2="BackgroundImageFix" result="effect1_dropShadow_216_27"/>
<feBlend mode="normal" in="SourceGraphic" in2="effect1_dropShadow_216_27" result="shape"/>
</filter>
<filter id="filter1_d_216_27" x="386" y="0" width="366" height="274" filterUnits="userSpaceOnUse" color-interpolation-filters="sRGB">
<feFlood flood-opacity="0" result="BackgroundImageFix"/>
<feColorMatrix in="SourceAlpha" type="matrix" values="0 0 0 0 0 0 0 0 0 0 0 0 0 0 0 0 0 0 127 0" result="hardAlpha"/>
<feOffset/>
<feGaussianBlur stdDeviation="2"/>
<feComposite in2="hardAlpha" operator="out"/>
<feColorMatrix type="matrix" values="0 0 0 0 0.503925 0 0 0 0 0.503925 0 0 0 0 0.503925 0 0 0 0.25 0"/>
<feBlend mode="normal" in2="BackgroundImageFix" result="effect1_dropShadow_216_27"/>
<feBlend mode="normal" in="SourceGraphic" in2="effect1_dropShadow_216_27" result="shape"/>
</filter>
<filter id="filter2_d_216_27" x="0" y="0" width="366" height="274" filterUnits="userSpaceOnUse" color-interpolation-filters="sRGB">
<feFlood flood-opacity="0" result="BackgroundImageFix"/>
<feColorMatrix in="SourceAlpha" type="matrix" values="0 0 0 0 0 0 0 0 0 0 0 0 0 0 0 0 0 0 127 0" result="hardAlpha"/>
<feOffset/>
<feGaussianBlur stdDeviation="2"/>
<feComposite in2="hardAlpha" operator="out"/>
<feColorMatrix type="matrix" values="0 0 0 0 0.503925 0 0 0 0 0.503925 0 0 0 0 0.503925 0 0 0 0.25 0"/>
<feBlend mode="normal" in2="BackgroundImageFix" result="effect1_dropShadow_216_27"/>
<feBlend mode="normal" in="SourceGraphic" in2="effect1_dropShadow_216_27" result="shape"/>
</filter>
</defs>
</svg>
